<svg width="24" height="24" viewBox="0 0 24 24" fill="none" xmlns="http://www.w3.org/2000/svg">
  <path
    d="M18.2706 7.55348H15.6223L15.2757 6.86476C15.2355 6.77563 14.869 5.99414 14.3515 5.99414H9.64807C9.13052 5.99414 8.7641 6.77563 8.72686 6.85875L8.37745 7.55348H5.72895C5.21182 7.55348 4.79093 7.97222 4.79093 8.48698V17.0602C4.79093 17.5752 5.21182 17.9941 5.72895 17.9941H18.2704C18.7875 17.9941 19.2084 17.5752 19.2084 17.0602L19.2088 15.9689V13.467V8.48698C19.2088 7.97222 18.788 7.55348 18.2706 7.55348ZM12.0159 15.7053C10.316 15.7053 8.933 14.3296 8.933 12.6385C8.933 10.9476 10.316 9.5719 12.0159 9.5719C13.7158 9.5719 15.0989 10.9476 15.0989 12.6385C15.0989 14.3296 13.7158 15.7053 12.0159 15.7053ZM16.5918 10.2756C16.1733 10.2756 15.8327 9.93501 15.8327 9.51649C15.8327 9.09796 16.1733 8.7576 16.5918 8.7576C17.0103 8.7576 17.3507 9.09796 17.3507 9.51649C17.3507 9.93501 17.0103 10.2756 16.5918 10.2756Z"
    fill="currentColor" />
  <path
    d="M12.016 10.6074C10.8896 10.6074 9.97339 11.5179 9.97339 12.6372C9.97339 13.7567 10.8897 14.6673 12.016 14.6673C13.1424 14.6673 14.0587 13.7567 14.0587 12.6372C14.0587 11.5179 13.1424 10.6074 12.016 10.6074Z"
    fill="currentColor" />
</svg>