<svg width="12" height="12" viewBox="0 0 12 12" fill="none" xmlns="http://www.w3.org/2000/svg">
  <path
    d="M10 4.66602V9.5549C10 9.80037 9.80102 9.99935 9.55556 9.99935H2.44444C2.19898 9.99935 2 9.80037 2 9.5549V4.66602"
    stroke="currentColor" stroke-width="0.888889" stroke-linecap="round" stroke-linejoin="round" />
  <path d="M2 2.44444C2 2.19898 2.19898 2 2.44444 2H9.55556C9.80102 2 10 2.19898 10 2.44444V4.66667H2V2.44444Z"
    stroke="currentColor" stroke-width="0.888889" stroke-linejoin="round" />
  <path fill-rule="evenodd" clip-rule="evenodd"
    d="M3.33333 3.77756C3.5788 3.77756 3.77777 3.57858 3.77777 3.33312C3.77777 3.08765 3.5788 2.88867 3.33333 2.88867C3.08786 2.88867 2.88889 3.08765 2.88889 3.33312C2.88889 3.57858 3.08786 3.77756 3.33333 3.77756Z"
    fill="currentColor" />
  <path fill-rule="evenodd" clip-rule="evenodd"
    d="M4.66667 3.77756C4.91214 3.77756 5.11112 3.57858 5.11112 3.33312C5.11112 3.08765 4.91214 2.88867 4.66667 2.88867C4.42121 2.88867 4.22223 3.08765 4.22223 3.33312C4.22223 3.57858 4.42121 3.77756 4.66667 3.77756Z"
    fill="currentColor" />
  <path fill-rule="evenodd" clip-rule="evenodd"
    d="M6 3.77756C6.24547 3.77756 6.44445 3.57858 6.44445 3.33312C6.44445 3.08765 6.24547 2.88867 6 2.88867C5.75454 2.88867 5.55556 3.08765 5.55556 3.33312C5.55556 3.57858 5.75454 3.77756 6 3.77756Z"
    fill="currentColor" />
</svg>