<svg width="40" height="32" viewBox="0 0 40 32" fill="none" xmlns="http://www.w3.org/2000/svg">
  <path
    d="M17.0334 23.4262H15.376L10.571 27.7159C10.1532 28.0873 9.80037 28.3612 9.51254 28.5376C9.2247 28.7233 8.90901 28.8162 8.56546 28.8162C8.08264 28.8162 7.70659 28.6583 7.43733 28.3426C7.17734 28.0269 7.04735 27.5998 7.04735 27.0613V23.4262H6.37883C4.99536 23.4262 3.83008 23.1801 2.88301 22.688C1.93593 22.1959 1.21634 21.4763 0.724234 20.5292C0.241411 19.5729 0 18.4169 0 17.0613V6.37883C0 5.02321 0.241411 3.87187 0.724234 2.92479C1.21634 1.96843 1.93593 1.2442 2.88301 0.752089C3.83008 0.250696 4.99536 0 6.37883 0H24.3175C25.701 0 26.8663 0.250696 27.8134 0.752089C28.7604 1.2442 29.4754 1.96843 29.9582 2.92479C30.4503 3.87187 30.6964 5.02321 30.6964 6.37883V8.66295H28.454V6.39276C28.454 5.03714 28.1151 4.0065 27.4373 3.30084C26.7595 2.59517 25.7196 2.24234 24.3175 2.24234H6.37883C4.9675 2.24234 3.92293 2.59517 3.24513 3.30084C2.5766 4.0065 2.24234 5.03714 2.24234 6.39276V17.0474C2.24234 18.403 2.5766 19.4336 3.24513 20.1393C3.92293 20.8357 4.9675 21.1838 6.37883 21.1838H8.09192C8.47261 21.1838 8.74188 21.2674 8.89972 21.4345C9.05757 21.5924 9.13649 21.8617 9.13649 22.2423V26.2674L13.5933 21.8524C13.8533 21.5738 14.104 21.3928 14.3454 21.3092C14.5868 21.2256 14.9025 21.1838 15.2925 21.1838H16.351L17.0334 23.4262ZM20.9471 26.7827C19.61 26.7827 18.4865 26.546 17.5766 26.0724C16.676 25.6082 15.9935 24.9257 15.5292 24.0251C15.065 23.1151 14.8329 22.0009 14.8329 20.6825V13.1476C14.8329 11.8292 15.065 10.7149 15.5292 9.80501C15.9935 8.89508 16.676 8.20798 17.5766 7.74373C18.4865 7.2702 19.61 7.03343 20.9471 7.03343H33.8858C35.2228 7.03343 36.3417 7.2702 37.2423 7.74373C38.1523 8.20798 38.8394 8.89508 39.3036 9.80501C39.7679 10.7149 40 11.8292 40 13.1476V20.6825C40 22.0009 39.7679 23.1151 39.3036 24.0251C38.8394 24.9257 38.1523 25.6082 37.2423 26.0724C36.3417 26.546 35.2228 26.7827 33.8858 26.7827H33.5933V30.1253C33.5933 30.6546 33.4633 31.0771 33.2033 31.3928C32.9434 31.7085 32.572 31.8663 32.0891 31.8663C31.7549 31.8663 31.4438 31.7734 31.156 31.5877C30.8774 31.402 30.5292 31.1281 30.1114 30.766L25.4596 26.7827H20.9471ZM20.9889 24.5404H25.376C25.6639 24.5404 25.9146 24.5868 26.1281 24.6797C26.3417 24.7632 26.5645 24.9118 26.7967 25.1253L31.5042 29.3315V25.6825C31.5042 25.2925 31.6063 25.0046 31.8106 24.8189C32.0241 24.6332 32.2795 24.5404 32.5766 24.5404H33.8579C35.2136 24.5404 36.2024 24.2201 36.8245 23.5794C37.4466 22.9294 37.7577 21.9499 37.7577 20.6407V13.1755C37.7577 11.8756 37.4466 10.9007 36.8245 10.2507C36.2024 9.60074 35.2136 9.27577 33.8579 9.27577H20.9889C19.624 9.27577 18.6305 9.60074 18.0084 10.2507C17.3955 10.9007 17.0891 11.8756 17.0891 13.1755V20.6546C17.0891 21.9545 17.3955 22.9294 18.0084 23.5794C18.6305 24.2201 19.624 24.5404 20.9889 24.5404Z"
    fill="currentColor" />
  <path
    d="M27.3106 18.8983C26.8494 18.8983 26.4254 18.5442 26.5338 18.0959C26.5485 18.0352 26.5663 17.9764 26.5871 17.9196C26.699 17.6399 26.8528 17.3882 27.0485 17.1645C27.2536 16.9408 27.4773 16.7357 27.7197 16.5493C27.9714 16.3629 28.2044 16.1811 28.4188 16.004C28.6425 15.8269 28.8243 15.6451 28.9641 15.4587C29.1039 15.2723 29.1738 15.0672 29.1738 14.8435C29.1738 14.5638 29.1039 14.3261 28.9641 14.1304C28.8243 13.9346 28.6192 13.7855 28.3489 13.6829C28.0879 13.5804 27.771 13.5291 27.3981 13.5291C26.9693 13.5291 26.5778 13.6223 26.2236 13.8088C26.068 13.8906 25.9134 13.9896 25.7596 14.1056C25.4107 14.3689 24.917 14.3947 24.5964 14.0976Lnan nanL24.5964 14.0976C24.28 13.8043 24.25 13.3067 24.5781 13.0265C24.8914 12.7589 25.2348 12.5303 25.6084 12.3406C26.2236 12.0237 26.8994 11.8652 27.6358 11.8652C28.3163 11.8652 28.9175 11.9678 29.4395 12.1728C29.9708 12.3779 30.3856 12.6902 30.6839 13.1097C30.9915 13.5198 31.1453 14.0372 31.1453 14.6617C31.1453 15.0066 31.0708 15.3095 30.9216 15.5705C30.7818 15.8222 30.5954 16.0506 30.3623 16.2557C30.1386 16.4514 29.9009 16.6425 29.6492 16.8289C29.3976 17.0061 29.1645 17.1925 28.9501 17.3882C28.7357 17.584 28.5679 17.803 28.4468 18.0454Lnan nanL28.4468 18.0454C28.2362 18.4666 27.9024 18.8983 27.4315 18.8983H27.3106ZM27.4121 22.6176C27.0579 22.6176 26.7642 22.5011 26.5312 22.2681C26.2981 22.035 26.1816 21.7414 26.1816 21.3872C26.1816 21.0236 26.2981 20.7253 26.5312 20.4923C26.7642 20.2593 27.0579 20.1428 27.4121 20.1428C27.7663 20.1428 28.0599 20.2593 28.293 20.4923C28.526 20.7253 28.6425 21.0236 28.6425 21.3872C28.6425 21.7414 28.526 22.035 28.293 22.2681C28.0599 22.5011 27.7663 22.6176 27.4121 22.6176Z"
    fill="currentColor" />
  <path
    d="M28.6427 21.387C28.6427 21.0689 28.5529 20.8007 28.3745 20.5825L28.293 20.4921C28.089 20.2881 27.8385 20.1735 27.5418 20.148L27.4117 20.1423C27.0576 20.1424 26.7643 20.2591 26.5313 20.4921L26.4489 20.5825C26.2706 20.8007 26.1816 21.069 26.1816 21.387L26.1872 21.5171C26.2128 21.8136 26.3275 22.0636 26.5313 22.2674C26.7643 22.5004 27.0576 22.6171 27.4117 22.6172C27.7216 22.6172 27.9854 22.5282 28.2025 22.3498L28.293 22.2674C28.4967 22.0636 28.6115 21.8135 28.637 21.5171L28.6427 21.387ZM31.145 14.6611C31.145 14.0367 30.9913 13.5196 30.6838 13.1095C30.3855 12.69 29.9704 12.3776 29.4391 12.1725C28.9171 11.9675 28.3159 11.8648 27.6355 11.8648C26.8991 11.8648 26.2233 12.0236 25.6081 12.3405L25.3335 12.49C25.0647 12.6468 24.8131 12.8257 24.5783 13.0263L24.5209 13.0812C24.255 13.3678 24.2994 13.8224 24.596 14.0973C24.8965 14.3759 25.3492 14.3701 25.6921 14.1515L25.7591 14.1054C25.8361 14.0474 25.9136 13.9934 25.991 13.9439L26.2236 13.8082C26.5777 13.6218 26.9693 13.5287 27.398 13.5287L27.667 13.5384C27.9256 13.5576 28.1529 13.6053 28.3487 13.6822C28.619 13.7847 28.8244 13.9339 28.9642 14.1297C29.104 14.3254 29.1733 14.5633 29.1734 14.8429C29.1734 15.0666 29.104 15.2719 28.9642 15.4584L28.8511 15.5973C28.7306 15.7353 28.5866 15.8708 28.419 16.0036C28.2046 16.1807 27.9712 16.3624 27.7195 16.5488C27.4771 16.7352 27.2533 16.9405 27.0483 17.1643L26.9093 17.3371C26.7783 17.5154 26.6709 17.7098 26.5871 17.9195L26.5337 18.0956L26.5192 18.178C26.4806 18.5592 26.8265 18.8557 27.2243 18.8936L27.3108 18.8976H27.4311C27.902 18.8976 28.2358 18.4659 28.4464 18.0447C28.5373 17.863 28.6545 17.6945 28.7978 17.539L28.9496 17.388C29.1105 17.2411 29.2823 17.0995 29.4642 16.9631L29.6491 16.8282C29.7748 16.7351 29.8971 16.641 30.0158 16.5455L30.3623 16.2556C30.5954 16.0505 30.7815 15.8215 30.9213 15.5698C31.0704 15.3088 31.145 15.006 31.145 14.6611ZM28.8075 21.387C28.8074 21.7813 28.6764 22.1181 28.4101 22.3846C28.1435 22.6511 27.8062 22.7828 27.4117 22.7828C27.0174 22.7827 26.6807 22.651 26.4142 22.3846C26.1477 22.1181 26.0161 21.7814 26.016 21.387C26.016 20.9846 26.1468 20.6424 26.4142 20.375C26.6807 20.1085 27.0174 19.9768 27.4117 19.9767C27.8062 19.9767 28.1435 20.1084 28.4101 20.375C28.6774 20.6423 28.8075 20.9847 28.8075 21.387ZM31.3106 14.6611C31.3106 15.0305 31.2305 15.3627 31.0651 15.6522C30.9155 15.9209 30.7169 16.1631 30.4714 16.3792V16.38C30.2441 16.5788 30.0027 16.7726 29.7477 16.9615L29.7444 16.9639C29.4981 17.1373 29.27 17.3192 29.0611 17.51C28.8607 17.693 28.7057 17.8961 28.5942 18.119C28.4844 18.3385 28.3385 18.5703 28.1508 18.749C27.9618 18.929 27.7215 19.0632 27.4311 19.0632H27.3108C27.04 19.0632 26.7763 18.9598 26.5935 18.7837C26.4078 18.6048 26.3031 18.3462 26.373 18.0568C26.3891 17.9902 26.4089 17.9251 26.432 17.8621L26.4336 17.8573C26.5523 17.5607 26.7158 17.2931 26.9239 17.0552L26.9263 17.052C27.1378 16.8213 27.3687 16.6101 27.6185 16.4179L27.6209 16.4163C27.8705 16.2314 28.1013 16.051 28.3132 15.8759L28.3156 15.8735C28.5305 15.7033 28.7021 15.5318 28.8317 15.359C28.951 15.1999 29.0086 15.0292 29.0086 14.8429C29.0086 14.592 28.9459 14.3891 28.8293 14.2258C28.712 14.0617 28.5357 13.9305 28.2897 13.8373L28.2881 13.8364C28.0516 13.7436 27.7565 13.6943 27.398 13.6943C26.9941 13.6943 26.6291 13.7813 26.3003 13.9544C26.1534 14.0317 26.0065 14.126 25.8593 14.2371C25.461 14.5377 24.8755 14.5816 24.4837 14.2185C24.1074 13.8697 24.0549 13.2555 24.4708 12.9003C24.7133 12.6932 24.9731 12.5087 25.2503 12.347L25.533 12.1927C26.1729 11.8632 26.8747 11.6992 27.6355 11.6992C28.3323 11.6992 28.9548 11.8042 29.4997 12.0183H29.4989C30.0558 12.2332 30.4974 12.5631 30.8163 13.0102L30.9334 13.1822C31.1874 13.5949 31.3106 14.0906 31.3106 14.6611Z"
    fill="currentColor" />
</svg>