<svg width="40" height="41" viewBox="0 0 40 41" fill="none" xmlns="http://www.w3.org/2000/svg">
  <path
    d="M17.2082 28.3539H15.5508L10.7458 32.6436C10.328 33.015 9.97518 33.2889 9.68734 33.4653C9.3995 33.651 9.08381 33.7439 8.74026 33.7439C8.25744 33.7439 7.8814 33.586 7.61213 33.2704C7.35215 32.9547 7.22216 32.5275 7.22216 31.989V28.3539H6.55363C5.17016 28.3539 4.00489 28.1079 3.05781 27.6158C2.11074 27.1236 1.39115 26.4041 0.899039 25.457C0.416216 24.5006 0.174805 23.3446 0.174805 21.989V11.3066C0.174805 9.95095 0.416216 8.7996 0.899039 7.85253C1.39115 6.89617 2.11074 6.17193 3.05781 5.67982C4.00489 5.17843 5.17016 4.92773 6.55363 4.92773H24.4924C25.8758 4.92773 27.0411 5.17843 27.9882 5.67982C28.9352 6.17193 29.6502 6.89617 30.133 7.85253C30.6251 8.7996 30.8712 9.95095 30.8712 11.3066V13.5907H28.6288V11.3205C28.6288 9.96487 28.2899 8.93423 27.6121 8.22857C26.9343 7.52291 25.8944 7.17007 24.4924 7.17007H6.55363C5.14231 7.17007 4.09774 7.52291 3.41993 8.22857C2.75141 8.93423 2.41714 9.96487 2.41714 11.3205V21.9751C2.41714 23.3307 2.75141 24.3613 3.41993 25.067C4.09774 25.7634 5.14231 26.1116 6.55363 26.1116H8.26673C8.64741 26.1116 8.91668 26.1951 9.07453 26.3623C9.23237 26.5201 9.31129 26.7894 9.31129 27.1701V31.1951L13.7681 26.7801C14.0281 26.5016 14.2788 26.3205 14.5202 26.2369C14.7616 26.1534 15.0773 26.1116 15.4673 26.1116H16.5258L17.2082 28.3539Z"
    fill="currentColor" />
  <path
    d="M37.5244 17.4277C37.5244 15.8537 36.2488 14.5781 34.6748 14.5781H20.6748C19.1008 14.5781 17.8252 15.8537 17.8252 17.4277V26.4277C17.8252 28.0017 19.1008 29.2773 20.6748 29.2773H24.8926C25.6845 29.2773 26.4474 29.5762 27.0293 30.1133L31.0244 33.8008V31.4277C31.0244 30.2403 31.9874 29.2773 33.1748 29.2773H34.6748C36.2488 29.2773 37.5244 28.0017 37.5244 26.4277V17.4277ZM39.8252 26.4277C39.8252 29.272 37.5191 31.5781 34.6748 31.5781H33.3252V35.2861C33.3249 36.7243 31.6125 37.4736 30.5557 36.498L25.4697 31.8027C25.3127 31.6578 25.1063 31.5781 24.8926 31.5781H20.6748C17.8305 31.5781 15.5244 29.272 15.5244 26.4277V17.4277C15.5244 14.5835 17.8305 12.2773 20.6748 12.2773H34.6748C37.5191 12.2773 39.8252 14.5835 39.8252 17.4277V26.4277Z"
    fill="currentColor" />
  <circle cx="22.6748" cy="22.4277" r="1.5" fill="currentColor" />
  <circle cx="27.6748" cy="22.4277" r="1.5" fill="currentColor" />
  <circle cx="32.6748" cy="22.4277" r="1.5" fill="currentColor" />
</svg>