<svg width="16" height="16" viewBox="0 0 16 16" fill="none" xmlns="http://www.w3.org/2000/svg">
  <path
    d="M5.61653 4.02817V2.73869C5.61653 2.16793 5.76101 1.73634 6.04998 1.44392C6.33894 1.14797 6.7671 1 7.33445 1H9.32196C9.62854 1 9.90165 1.04404 10.1413 1.13212C10.3844 1.21668 10.6047 1.36113 10.802 1.56547L13.4344 4.24485C13.6423 4.45976 13.7886 4.68877 13.8731 4.93187C13.9577 5.17144 14 5.46563 14 5.81442V9.99996C14 10.5707 13.8538 11.0023 13.5613 11.2947C13.2723 11.5871 12.8459 11.7334 12.2821 11.7334H11.1985V10.6975H12.1869C12.4442 10.6975 12.6362 10.6324 12.7631 10.502C12.8935 10.3681 12.9587 10.1796 12.9587 9.93654V5.56075H10.6329C10.3051 5.56075 10.0567 5.47796 9.88755 5.31237C9.7184 5.14326 9.63383 4.89487 9.63383 4.56722V2.0411H7.41903C7.16531 2.0411 6.97325 2.10628 6.84286 2.23664C6.716 2.36699 6.65257 2.55548 6.65257 2.80211V4.02817H5.61653ZM10.5007 4.4351C10.5007 4.5267 10.5201 4.59364 10.5589 4.63592C10.6012 4.67467 10.6663 4.69405 10.7544 4.69405H12.6891L10.5007 2.47445V4.4351ZM3 12.711V5.44977C3 4.87902 3.14448 4.44743 3.43345 4.15501C3.72241 3.85906 4.15057 3.71109 4.71792 3.71109H6.55742C6.8781 3.71109 7.1424 3.74632 7.35031 3.81678C7.56175 3.88372 7.77319 4.02641 7.98462 4.24485L10.8496 7.15147C10.9976 7.30296 11.1104 7.44741 11.1879 7.58482C11.2654 7.72222 11.3165 7.87548 11.3412 8.04459C11.3694 8.21018 11.3835 8.411 11.3835 8.64706V12.711C11.3835 13.2818 11.239 13.7134 10.95 14.0058C10.6611 14.2982 10.2329 14.4444 9.66555 14.4444H4.71792C4.15057 14.4444 3.72241 14.2982 3.43345 14.0058C3.14448 13.7169 3 13.2853 3 12.711ZM4.04133 12.6476C4.04133 12.8942 4.10476 13.0827 4.23162 13.2131C4.35848 13.3435 4.54877 13.4086 4.8025 13.4086H9.57569C9.82941 13.4086 10.0197 13.3435 10.1466 13.2131C10.277 13.0827 10.3421 12.8942 10.3421 12.6476V8.76861H7.55118C7.17764 8.76861 6.89749 8.677 6.71072 8.4938C6.52395 8.30707 6.43056 8.02345 6.43056 7.64295V4.75218H4.80778C4.55054 4.75218 4.35848 4.81736 4.23162 4.94772C4.10476 5.07808 4.04133 5.26481 4.04133 5.50791V12.6476ZM7.6569 7.85434H10.1994L7.34503 4.95301V7.54254C7.34503 7.65176 7.36969 7.73103 7.41903 7.78035C7.46836 7.82968 7.54765 7.85434 7.6569 7.85434Z"
    fill="currentColor" />
</svg>