<svg width="16" height="16" viewBox="0 0 16 16" fill="none" xmlns="http://www.w3.org/2000/svg">
  <path
    d="M4.6665 6.44597C4.6665 5.97441 4.85383 5.52217 5.18727 5.18873C5.52071 4.85529 5.97295 4.66797 6.4445 4.66797H12.2218C12.4553 4.66797 12.6865 4.71396 12.9022 4.80331C13.118 4.89266 13.314 5.02363 13.4791 5.18873C13.6442 5.35384 13.7751 5.54984 13.8645 5.76556C13.9538 5.98127 13.9998 6.21248 13.9998 6.44597V12.2233C13.9998 12.4568 13.9538 12.688 13.8645 12.9037C13.7751 13.1194 13.6442 13.3154 13.4791 13.4805C13.314 13.6456 13.118 13.7766 12.9022 13.866C12.6865 13.9553 12.4553 14.0013 12.2218 14.0013H6.4445C6.21101 14.0013 5.97981 13.9553 5.76409 13.866C5.54838 13.7766 5.35237 13.6456 5.18727 13.4805C5.02217 13.3154 4.8912 13.1194 4.80185 12.9037C4.71249 12.688 4.6665 12.4568 4.6665 12.2233V6.44597Z"
    stroke="currentColor" stroke-width="1.33333" stroke-linecap="round" stroke-linejoin="round" />
  <path
    d="M2.67454 11.158C2.47011 11.0415 2.30006 10.873 2.18159 10.6697C2.06313 10.4663 2.00045 10.2353 1.99988 10V3.33333C1.99988 2.6 2.59988 2 3.33321 2H9.99988C10.4999 2 10.7719 2.25667 10.9999 2.66667"
    stroke="currentColor" stroke-width="1.33333" stroke-linecap="round" stroke-linejoin="round" />
</svg>