<svg width="16" height="16" viewBox="0 0 16 16" fill="none" xmlns="http://www.w3.org/2000/svg">
  <path
    d="M3.98633 13.7688C3.33789 13.7688 2.84375 13.6008 2.50391 13.2648C2.16797 12.9328 2 12.4445 2 11.8V5.10273C2 4.46211 2.16797 3.97383 2.50391 3.63789C2.84375 3.30195 3.33789 3.13398 3.98633 3.13398H10.4258L9.125 4.44062H4.09766C3.83984 4.44062 3.64258 4.50703 3.50586 4.63984C3.36914 4.77266 3.30078 4.97383 3.30078 5.24336V11.6711C3.30078 11.9406 3.36914 12.1418 3.50586 12.2746C3.64258 12.4035 3.83984 12.468 4.09766 12.468H10.666C10.8574 12.468 11.0156 12.4035 11.1406 12.2746C11.2656 12.1418 11.3281 11.9406 11.3281 11.6711V6.68477L12.6348 5.38398V11.8C12.6348 12.4445 12.4707 12.9328 12.1426 13.2648C11.8184 13.6008 11.3613 13.7688 10.7715 13.7688H3.98633ZM6.25977 9.77266C6.18555 9.8 6.11523 9.78242 6.04883 9.71992C5.98242 9.65742 5.9668 9.58711 6.00195 9.50898L6.5293 8.30781L11.7852 3.05195L12.7461 4.00703L7.49023 9.26289L6.25977 9.77266ZM13.2031 3.55586L12.2422 2.58906L12.6348 2.19648C12.7559 2.0793 12.8945 2.01484 13.0508 2.00313C13.2109 1.9875 13.3438 2.03047 13.4492 2.13203L13.6191 2.30781C13.7402 2.425 13.7988 2.56172 13.7949 2.71797C13.791 2.87422 13.7266 3.0168 13.6016 3.1457L13.2031 3.55586Z"
    fill="currentColor" />
</svg>