<svg width="16" height="16" viewBox="0 0 16 16" fill="none" xmlns="http://www.w3.org/2000/svg">
  <path
    d="M12.8359 10.5684C12.8359 10.7598 12.7715 10.9199 12.6426 11.0488C12.5137 11.1777 12.3633 11.2422 12.1914 11.2422C12.0156 11.2422 11.8672 11.1777 11.7461 11.0488C11.625 10.916 11.5645 10.7617 11.5645 10.5859V8.39453L11.6582 5.98047L10.709 7.04688L5.125 12.6309C4.98828 12.7637 4.83398 12.8301 4.66211 12.8301C4.54492 12.8301 4.43555 12.7988 4.33398 12.7363C4.23633 12.6777 4.15625 12.5977 4.09375 12.4961C4.03125 12.3945 4 12.2871 4 12.1738C4 12.0059 4.07031 11.8516 4.21094 11.7109L9.7832 6.12109L10.8496 5.18359L8.33008 5.27148H6.24414C6.06836 5.27148 5.91602 5.21094 5.78711 5.08984C5.6582 4.96484 5.59375 4.81641 5.59375 4.64453C5.59375 4.47266 5.65625 4.32227 5.78125 4.19336C5.90625 4.06445 6.06641 4 6.26172 4H12.1445C12.3555 4 12.5215 4.06445 12.6426 4.19336C12.7676 4.31836 12.8301 4.48242 12.8301 4.68555L12.8359 10.5684Z"
    fill="currentColor" />
</svg>