<svg width="513" height="513" viewBox="0 0 513 513" fill="none" xmlns="http://www.w3.org/2000/svg">
  <path
    d="M372.268 172.695H369.114V152.174C369.114 89.9159 318.931 39.1632 257.263 39H256.939C227.056 39 198.911 50.709 177.762 72.0464C156.532 93.4245 144.805 121.861 144.805 152.174V172.695H100V448H414V172.695H372.268ZM186.577 152.133C186.577 133.121 193.937 115.251 207.282 101.829C220.586 88.4472 238.217 81.1035 256.98 81.1035H257.182C295.921 81.2259 327.423 113.089 327.423 152.133V172.654H186.577V152.133ZM372.268 405.896H285.367L229.806 312.959H181.806L237.367 405.896H141.732V214.799H228.592L284.154 307.736H332.154L276.592 214.799H372.268V405.896Z"
    fill="currentColor" />
</svg>