<svg width="16" height="16" viewBox="0 0 16 16" fill="none" xmlns="http://www.w3.org/2000/svg">
  <path
    d="M2.16211 5.50586C2.09961 5.55664 2.03711 5.57617 1.97461 5.56445C1.91602 5.55273 1.86914 5.52148 1.83398 5.4707C1.80273 5.41602 1.80078 5.34961 1.82812 5.27148L2.01562 4.69141L1.5293 4.32812C1.4707 4.28516 1.4375 4.23242 1.42969 4.16992C1.42578 4.10742 1.44336 4.05469 1.48242 4.01172C1.52148 3.96484 1.57617 3.94141 1.64648 3.94141H2.25586L2.45508 3.31445C2.47461 3.24805 2.51172 3.20508 2.56641 3.18555C2.625 3.16211 2.68164 3.16211 2.73633 3.18555C2.79102 3.20898 2.82812 3.25195 2.84766 3.31445L3.04688 3.94141H3.65039C3.7207 3.94141 3.77539 3.96484 3.81445 4.01172C3.85352 4.05469 3.86914 4.10742 3.86133 4.16992C3.85742 4.23242 3.82617 4.28516 3.76758 4.32812L3.28711 4.69141L3.47461 5.27148C3.50195 5.34961 3.49805 5.41602 3.46289 5.4707C3.43164 5.52148 3.38477 5.55273 3.32227 5.56445C3.25977 5.57617 3.19531 5.55664 3.12891 5.50586L2.6543 5.14844L2.16211 5.50586ZM2.16211 9.09766C2.09961 9.14844 2.03711 9.16797 1.97461 9.15625C1.91602 9.14062 1.86914 9.10742 1.83398 9.05664C1.80273 9.00586 1.80078 8.94141 1.82812 8.86328L2.01562 8.2832L1.5293 7.91992C1.4707 7.87695 1.4375 7.82617 1.42969 7.76758C1.42578 7.70508 1.44336 7.65234 1.48242 7.60938C1.52148 7.5625 1.57617 7.53906 1.64648 7.53906H2.25586L2.45508 6.90625C2.47461 6.84375 2.51172 6.80078 2.56641 6.77734C2.625 6.75391 2.68164 6.75391 2.73633 6.77734C2.79102 6.79688 2.82812 6.83984 2.84766 6.90625L3.04688 7.53906H3.65039C3.7207 7.53906 3.77539 7.5625 3.81445 7.60938C3.85352 7.65234 3.86914 7.70508 3.86133 7.76758C3.85742 7.82617 3.82617 7.87695 3.76758 7.91992L3.28711 8.27734L3.47461 8.86328C3.50195 8.94141 3.49805 9.00586 3.46289 9.05664C3.43164 9.10742 3.38477 9.14062 3.32227 9.15625C3.25977 9.16797 3.19531 9.14844 3.12891 9.09766L2.6543 8.74023L2.16211 9.09766ZM2.16211 12.7012C2.09961 12.752 2.03711 12.7715 1.97461 12.7598C1.91602 12.748 1.86914 12.7148 1.83398 12.6602C1.80273 12.6094 1.80078 12.5469 1.82812 12.4727L2.01562 11.8867L1.5293 11.5234C1.4707 11.4805 1.4375 11.4297 1.42969 11.3711C1.42578 11.3086 1.44336 11.2559 1.48242 11.2129C1.52148 11.166 1.57617 11.1426 1.64648 11.1426H2.25586L2.45508 10.5098C2.47461 10.4473 2.51172 10.4043 2.56641 10.3809C2.625 10.3574 2.68164 10.3574 2.73633 10.3809C2.79102 10.4043 2.82812 10.4473 2.84766 10.5098L3.04688 11.1426H3.65039C3.7207 11.1426 3.77539 11.166 3.81445 11.2129C3.85352 11.2559 3.86914 11.3086 3.86133 11.3711C3.85742 11.4297 3.82617 11.4805 3.76758 11.5234L3.28711 11.8867L3.47461 12.4727C3.50195 12.5469 3.49805 12.6094 3.46289 12.6602C3.43164 12.7148 3.38477 12.748 3.32227 12.7598C3.25977 12.7715 3.19531 12.752 3.12891 12.7012L2.6543 12.3438L2.16211 12.7012ZM5.60156 5.04297C5.44531 5.04297 5.3125 4.98828 5.20312 4.87891C5.09766 4.76953 5.04492 4.63867 5.04492 4.48633C5.04492 4.33398 5.09766 4.20312 5.20312 4.09375C5.3125 3.98437 5.44531 3.92969 5.60156 3.92969H13.0137C13.166 3.92969 13.2969 3.98437 13.4062 4.09375C13.5156 4.19922 13.5703 4.33008 13.5703 4.48633C13.5703 4.63867 13.5156 4.76953 13.4062 4.87891C13.2969 4.98828 13.166 5.04297 13.0137 5.04297H5.60156ZM5.60156 8.64062C5.44531 8.64062 5.3125 8.58594 5.20312 8.47656C5.09766 8.36719 5.04492 8.23633 5.04492 8.08398C5.04492 7.92773 5.09766 7.79688 5.20312 7.69141C5.3125 7.58203 5.44531 7.52734 5.60156 7.52734H13.0137C13.166 7.52734 13.2969 7.58203 13.4062 7.69141C13.5156 7.79688 13.5703 7.92773 13.5703 8.08398C13.5703 8.23633 13.5156 8.36719 13.4062 8.47656C13.2969 8.58594 13.166 8.64062 13.0137 8.64062H5.60156ZM5.60156 12.2383C5.44531 12.2383 5.3125 12.1836 5.20312 12.0742C5.09766 11.9648 5.04492 11.834 5.04492 11.6816C5.04492 11.5293 5.09766 11.3984 5.20312 11.2891C5.3125 11.1797 5.44531 11.125 5.60156 11.125H13.0137C13.166 11.125 13.2969 11.1797 13.4062 11.2891C13.5156 11.3945 13.5703 11.5254 13.5703 11.6816C13.5703 11.8379 13.5156 11.9707 13.4062 12.0801C13.2969 12.1855 13.166 12.2383 13.0137 12.2383H5.60156Z"
    fill="currentColor" />
</svg>