<svg width="16" height="16" viewBox="0 0 16 16" fill="none" xmlns="http://www.w3.org/2000/svg">
  <path
    d="M2.19336 7.45312C2.19336 6.85156 2.30615 6.2876 2.53174 5.76123C2.7609 5.23128 3.07601 4.76579 3.47705 4.36475C3.87809 3.96012 4.3418 3.64502 4.86816 3.41943C5.39811 3.19385 5.96387 3.08105 6.56543 3.08105C7.17057 3.08105 7.73633 3.19385 8.2627 3.41943C8.79264 3.64502 9.25814 3.96012 9.65918 4.36475C10.0602 4.76579 10.3735 5.23128 10.5991 5.76123C10.8283 6.2876 10.9429 6.85156 10.9429 7.45312C10.9429 7.92578 10.8695 8.37516 10.7227 8.80127C10.5794 9.22738 10.3807 9.61589 10.1265 9.9668L12.5757 12.4268C12.6509 12.4984 12.7064 12.5825 12.7422 12.6792C12.7816 12.7759 12.8013 12.8779 12.8013 12.9854C12.8013 13.1357 12.7673 13.2718 12.6992 13.3936C12.6312 13.5153 12.5381 13.6102 12.4199 13.6782C12.3018 13.7498 12.1657 13.7856 12.0117 13.7856C11.9043 13.7856 11.8005 13.766 11.7002 13.7266C11.6035 13.6908 11.5158 13.6335 11.437 13.5547L8.97168 11.0894C8.62793 11.3185 8.25195 11.4993 7.84375 11.6318C7.43913 11.7607 7.01302 11.8252 6.56543 11.8252C5.96387 11.8252 5.39811 11.7124 4.86816 11.4868C4.3418 11.2612 3.87809 10.9479 3.47705 10.5469C3.07601 10.1458 2.7609 9.68213 2.53174 9.15576C2.30615 8.62581 2.19336 8.05827 2.19336 7.45312ZM3.31592 7.45312C3.31592 7.9043 3.39827 8.32682 3.56299 8.7207C3.73128 9.111 3.96403 9.45475 4.26123 9.75195C4.56201 10.0492 4.90934 10.2837 5.30322 10.4556C5.6971 10.6239 6.11784 10.708 6.56543 10.708C7.0166 10.708 7.43734 10.6239 7.82764 10.4556C8.22152 10.2837 8.56706 10.0492 8.86426 9.75195C9.16146 9.45475 9.39421 9.111 9.5625 8.7207C9.73438 8.32682 9.82031 7.9043 9.82031 7.45312C9.82031 7.00553 9.73438 6.5848 9.5625 6.19092C9.39421 5.79704 9.16146 5.4515 8.86426 5.1543C8.56706 4.85352 8.22152 4.62077 7.82764 4.45605C7.43734 4.28776 7.0166 4.20361 6.56543 4.20361C6.11784 4.20361 5.6971 4.28776 5.30322 4.45605C4.90934 4.62077 4.56201 4.85352 4.26123 5.1543C3.96403 5.4515 3.73128 5.79704 3.56299 6.19092C3.39827 6.5848 3.31592 7.00553 3.31592 7.45312ZM4.72852 7.23828V5.98145C4.72852 5.86686 4.75716 5.77734 4.81445 5.71289C4.87174 5.64844 4.94873 5.61621 5.04541 5.61621H6.37207C6.52246 5.61621 6.61377 5.67708 6.646 5.79883C6.67822 5.92057 6.65137 6.0262 6.56543 6.11572L6.14648 6.52393L7.48389 7.87207L7.89209 7.46924C7.97803 7.38688 8.08187 7.36182 8.20361 7.39404C8.32536 7.42269 8.38623 7.51221 8.38623 7.6626V8.91943C8.38623 9.03402 8.35758 9.12174 8.30029 9.18262C8.243 9.24349 8.16602 9.27393 8.06934 9.27393H6.74268C6.59229 9.27393 6.49919 9.21484 6.46338 9.09668C6.43115 8.97493 6.4598 8.87109 6.54932 8.78516L6.97363 8.37158L5.62549 7.02881L5.22266 7.42627C5.13672 7.51221 5.03288 7.53906 4.91113 7.50684C4.78939 7.47461 4.72852 7.38509 4.72852 7.23828Z"
    fill="currentColor" />
</svg>