<svg width="16" height="16" viewBox="0 0 16 16" fill="none" xmlns="http://www.w3.org/2000/svg">
  <path
    d="M1.19727 12.5547V7.56836C1.19727 7.1582 1.31836 6.83789 1.56055 6.60742C1.80664 6.37695 2.14453 6.26172 2.57422 6.26172H3.86914V3.64258C3.86914 3.01367 4.03125 2.53906 4.35547 2.21875C4.68359 1.89844 5.16406 1.73828 5.79688 1.73828H12.875C13.5078 1.73828 13.9863 1.89844 14.3105 2.21875C14.6348 2.53906 14.7969 3.01367 14.7969 3.64258V12.5195C14.7969 13.1445 14.6348 13.6172 14.3105 13.9375C13.9863 14.2617 13.5078 14.4238 12.875 14.4238H3.11328C2.48828 14.4238 2.01172 14.2637 1.68359 13.9434C1.35938 13.623 1.19727 13.1602 1.19727 12.5547ZM2.35156 12.4961C2.35156 12.7188 2.42383 12.9023 2.56836 13.0469C2.71289 13.1953 2.89453 13.2695 3.11328 13.2695C3.32812 13.2695 3.50781 13.1973 3.65234 13.0527C3.79688 12.9082 3.86914 12.7227 3.86914 12.4961V7.41016H2.7207C2.60352 7.41016 2.51172 7.44336 2.44531 7.50977C2.38281 7.57617 2.35156 7.66602 2.35156 7.7793V12.4961ZM4.85352 13.2695H12.7988C13.0762 13.2695 13.2871 13.1973 13.4316 13.0527C13.5762 12.9121 13.6484 12.7012 13.6484 12.4199V3.74219C13.6484 3.46094 13.5762 3.24805 13.4316 3.10352C13.2871 2.95898 13.0762 2.88672 12.7988 2.88672H5.86719C5.59375 2.88672 5.38477 2.95898 5.24023 3.10352C5.0957 3.24805 5.02344 3.46094 5.02344 3.74219V12.5078C5.02344 12.793 4.9668 13.0469 4.85352 13.2695ZM6.51172 5.38867C6.39844 5.38867 6.30273 5.34961 6.22461 5.27148C6.15039 5.19336 6.11328 5.09961 6.11328 4.99023C6.11328 4.88477 6.15039 4.79492 6.22461 4.7207C6.30273 4.64648 6.39844 4.60938 6.51172 4.60938H12.166C12.2754 4.60938 12.3672 4.64648 12.4414 4.7207C12.5195 4.79492 12.5586 4.88477 12.5586 4.99023C12.5586 5.09961 12.5195 5.19336 12.4414 5.27148C12.3672 5.34961 12.2754 5.38867 12.166 5.38867H6.51172ZM6.51172 7.41016C6.39844 7.41016 6.30273 7.375 6.22461 7.30469C6.15039 7.23047 6.11328 7.13672 6.11328 7.02344C6.11328 6.91406 6.15039 6.82227 6.22461 6.74805C6.30273 6.66992 6.39844 6.63086 6.51172 6.63086H12.166C12.2754 6.63086 12.3672 6.66992 12.4414 6.74805C12.5195 6.82227 12.5586 6.91406 12.5586 7.02344C12.5586 7.13672 12.5195 7.23047 12.4414 7.30469C12.3672 7.375 12.2754 7.41016 12.166 7.41016H6.51172ZM6.8457 11.4883C6.61523 11.4883 6.43359 11.4238 6.30078 11.2949C6.17188 11.1621 6.10742 10.9824 6.10742 10.7559V9.39648C6.10742 9.16602 6.17188 8.98633 6.30078 8.85742C6.43359 8.72852 6.61523 8.66406 6.8457 8.66406H8.30469C8.53125 8.66406 8.70898 8.72852 8.83789 8.85742C8.9707 8.98633 9.03711 9.16602 9.03711 9.39648V10.7559C9.03711 10.9824 8.9707 11.1621 8.83789 11.2949C8.70898 11.4238 8.53125 11.4883 8.30469 11.4883H6.8457ZM10.0742 9.44336C9.96094 9.44336 9.86719 9.40625 9.79297 9.33203C9.71875 9.25781 9.68164 9.16797 9.68164 9.0625C9.68164 8.94531 9.71875 8.84961 9.79297 8.77539C9.86719 8.70117 9.96094 8.66406 10.0742 8.66406H12.1602C12.2734 8.66406 12.3672 8.70117 12.4414 8.77539C12.5156 8.84961 12.5527 8.94531 12.5527 9.0625C12.5527 9.16797 12.5156 9.25781 12.4414 9.33203C12.3672 9.40625 12.2734 9.44336 12.1602 9.44336H10.0742ZM10.0742 11.4883C9.96094 11.4883 9.86719 11.4512 9.79297 11.377C9.71875 11.3027 9.68164 11.2129 9.68164 11.1074C9.68164 10.9941 9.71875 10.9004 9.79297 10.8262C9.86719 10.748 9.96094 10.709 10.0742 10.709H12.1602C12.2734 10.709 12.3672 10.748 12.4414 10.8262C12.5156 10.9004 12.5527 10.9941 12.5527 11.1074C12.5527 11.2129 12.5156 11.3027 12.4414 11.377C12.3672 11.4512 12.2734 11.4883 12.1602 11.4883H10.0742Z"
    fill="currentColor" />
</svg>