<svg width="8" height="11" viewBox="0 0 8 11" fill="none" xmlns="http://www.w3.org/2000/svg">
  <path
    d="M3.77051 0.435547C3.86816 0.435547 3.95931 0.455078 4.04395 0.494141C4.13184 0.533203 4.21647 0.593424 4.29785 0.674805L7.06641 3.33105C7.13477 3.3929 7.18848 3.46452 7.22754 3.5459C7.26986 3.62728 7.29102 3.7168 7.29102 3.81445C7.29102 3.94141 7.26009 4.05534 7.19824 4.15625C7.13639 4.25391 7.05664 4.33203 6.95898 4.39062C6.86133 4.44596 6.75391 4.47363 6.63672 4.47363C6.55534 4.47363 6.47233 4.45898 6.3877 4.42969C6.30632 4.40039 6.22819 4.35156 6.15332 4.2832L3.77051 1.94434L1.38281 4.2832C1.3112 4.35482 1.23307 4.40527 1.14844 4.43457C1.06706 4.46061 0.984049 4.47363 0.899414 4.47363C0.785482 4.47363 0.67806 4.44596 0.577148 4.39062C0.479492 4.33203 0.39974 4.25391 0.337891 4.15625C0.276042 4.05534 0.245117 3.94141 0.245117 3.81445C0.245117 3.7168 0.264648 3.62728 0.303711 3.5459C0.346029 3.46452 0.401367 3.3929 0.469727 3.33105L3.23828 0.674805C3.31966 0.593424 3.4043 0.533203 3.49219 0.494141C3.58008 0.455078 3.67285 0.435547 3.77051 0.435547ZM3.77051 10.5137C3.67285 10.5137 3.58008 10.4941 3.49219 10.4551C3.4043 10.416 3.31966 10.3558 3.23828 10.2744L0.469727 7.61816C0.401367 7.55306 0.346029 7.47982 0.303711 7.39844C0.264648 7.31706 0.245117 7.22917 0.245117 7.13477C0.245117 7.00456 0.276042 6.89062 0.337891 6.79297C0.39974 6.69531 0.479492 6.61882 0.577148 6.56348C0.67806 6.50488 0.785482 6.47559 0.899414 6.47559C0.984049 6.47559 1.06706 6.49023 1.14844 6.51953C1.23307 6.54557 1.3112 6.5944 1.38281 6.66602L3.77051 9.00488L6.15332 6.66602C6.22819 6.59766 6.30632 6.54883 6.3877 6.51953C6.47233 6.49023 6.55534 6.47559 6.63672 6.47559C6.75391 6.47559 6.86133 6.50488 6.95898 6.56348C7.05664 6.61882 7.13639 6.69531 7.19824 6.79297C7.26009 6.89062 7.29102 7.00456 7.29102 7.13477C7.29102 7.22917 7.26986 7.31706 7.22754 7.39844C7.18848 7.47982 7.13477 7.55306 7.06641 7.61816L4.29785 10.2744C4.21647 10.3558 4.13184 10.416 4.04395 10.4551C3.95931 10.4941 3.86816 10.5137 3.77051 10.5137Z"
    fill="currentColor" />
</svg>