<svg width="16" height="16" viewBox="0 0 16 16" fill="none" xmlns="http://www.w3.org/2000/svg">
  <path
    d="M4.90015 8C4.90015 7.85382 4.95255 7.72833 5.05736 7.62352C5.16216 7.51872 5.28766 7.46631 5.43383 7.46631H7.8706V5.03369C7.8706 4.88751 7.92162 4.76202 8.02367 4.65721C8.12572 4.5524 8.25121 4.5 8.40015 4.5C8.54632 4.5 8.67182 4.5524 8.77662 4.65721C8.88143 4.76202 8.93383 4.88751 8.93383 5.03369V7.46631H11.3706C11.514 7.46631 11.6381 7.51872 11.7429 7.62352C11.8477 7.72833 11.9001 7.85382 11.9001 8C11.9001 8.14894 11.8477 8.27581 11.7429 8.38061C11.6381 8.48266 11.514 8.53369 11.3706 8.53369H8.93383V10.9704C8.93383 11.1139 8.88143 11.238 8.77662 11.3428C8.67182 11.4476 8.54632 11.5 8.40015 11.5C8.25121 11.5 8.12572 11.4476 8.02367 11.3428C7.92162 11.238 7.8706 11.1139 7.8706 10.9704V8.53369H5.43383C5.28766 8.53369 5.16216 8.48266 5.05736 8.38061C4.95255 8.27581 4.90015 8.14894 4.90015 8Z"
    fill="currentColor" />
  <path
    d="M11.5818 2.2998C12.9725 2.2998 14.1003 3.42761 14.1003 4.81836V11.1816C14.1003 12.5724 12.9725 13.7002 11.5818 13.7002H2.69995V4.81836C2.69995 3.42761 3.82775 2.2998 5.21851 2.2998H11.5818Z"
    stroke="currentColor" stroke-width="1.4" />
</svg>