<svg width="16" height="16" viewBox="0 0 16 16" fill="none" xmlns="http://www.w3.org/2000/svg">
  <path
    d="M3 3.25C3 2.42157 3.67157 1.75 4.5 1.75H9.04289C9.1755 1.75 9.30268 1.80268 9.39645 1.89645L12.8536 5.35355C12.9473 5.44732 13 5.5745 13 5.70711V12.75C13 13.5784 12.3284 14.25 11.5 14.25H4.5C3.67157 14.25 3 13.5784 3 12.75V3.25Z"
    stroke="currentColor" stroke-width="1.06667" />
  <path
    d="M11.2917 9.40335C10.9198 9.03753 9.85897 9.13813 9.32854 9.2052C8.80421 8.88511 8.45363 8.44309 8.20671 7.79377C8.3256 7.30297 8.5146 6.55609 8.37133 6.08663C8.24329 5.28794 7.21901 5.3672 7.07269 5.90677C6.93855 6.39758 7.06049 7.08043 7.28608 7.95229C6.98123 8.68087 6.52701 9.65942 6.20693 10.2203C5.59724 10.5343 4.77415 11.019 4.65222 11.6287C4.55162 12.1104 5.44481 13.3115 6.97209 10.6776C7.65494 10.452 8.39876 10.1746 9.05723 10.0649C9.63339 10.3758 10.3071 10.5831 10.7583 10.5831C11.5356 10.5831 11.6118 9.72344 11.2917 9.40335ZM5.25276 11.775C5.40823 11.3574 5.99963 10.8758 6.17949 10.7081C5.60028 11.6318 5.25276 11.7964 5.25276 11.775ZM7.7403 5.9647C7.96588 5.9647 7.94454 6.94325 7.79517 7.20846C7.66104 6.78473 7.66409 5.9647 7.7403 5.9647ZM6.99648 10.1289C7.29218 9.61369 7.5452 9.00095 7.74944 8.46138C8.00246 8.92169 8.3256 9.29056 8.66703 9.54358C8.03295 9.67466 7.48118 9.94292 6.99648 10.1289ZM11.0082 9.97646C11.0082 9.97646 10.8558 10.1594 9.87116 9.73868C10.9412 9.65942 11.118 9.90329 11.0082 9.97646Z"
    fill="currentColor" />
  <path d="M9 1.75V4.75C9 5.30228 9.44771 5.75 10 5.75H13" stroke="currentColor" stroke-width="1.06667" />
</svg>