<svg width="16" height="16" viewBox="0 0 16 16" fill="none" xmlns="http://www.w3.org/2000/svg">
  <path
    d="M7 7.5C7.2761 7.5 7.5 7.7239 7.5 8C7.5 8.2761 7.2761 8.5 7 8.5H4C3.72386 8.5 3.5 8.2761 3.5 8C3.5 7.7239 3.72386 7.5 4 7.5H7Z"
    fill="currentColor" />
  <path
    d="M12 5C12.2761 5 12.5 5.22386 12.5 5.5C12.5 5.77614 12.2761 6 12 6H4C3.72386 6 3.5 5.77614 3.5 5.5C3.5 5.22386 3.72386 5 4 5H12Z"
    fill="currentColor" />
  <path
    d="M13.0596 2.01172C14.2515 2.1326 15.1815 3.13954 15.1816 4.36328V8H13.8818V4.36328C13.8816 3.77608 13.4056 3.2999 12.8184 3.2998H3.36328C2.77614 3.30001 2.3 3.77615 2.2998 4.36328V11.4541C2.29988 12.0413 2.77607 12.5183 3.36328 12.5186H9V13.8184H3.36328L3.12207 13.8057C1.93019 13.6847 1.00007 12.6779 1 11.4541V4.36328C1.00019 3.05819 2.05816 2.00021 3.36328 2H12.8184L13.0596 2.01172Z"
    fill="currentColor" />
  <path
    d="M15.4595 13.5397L15.543 13.6425C15.7094 13.8948 15.6815 14.2374 15.4595 14.4594C15.2375 14.6815 14.8948 14.7093 14.6426 14.543L14.5397 14.4594L11.54 11.4598C11.2862 11.2059 11.2862 10.7938 11.54 10.54C11.7938 10.2861 12.206 10.2861 12.4598 10.54L15.4595 13.5397Z"
    fill="currentColor" />
  <path
    d="M10.3496 14V10.5C10.3496 9.86491 10.8649 9.34961 11.5 9.34961H15L15.1309 9.36331C15.4271 9.42381 15.6504 9.68581 15.6504 10C15.6504 10.3142 15.4271 10.5762 15.1309 10.6367L15 10.6504H11.6504V14C11.6504 14.359 11.359 14.6504 11 14.6504C10.641 14.6504 10.3496 14.359 10.3496 14Z"
    fill="currentColor" />
</svg>