<svg width="16" height="16" viewBox="0 0 16 16" fill="none" xmlns="http://www.w3.org/2000/svg">
  <path
    d="M7.79004 2.47852C8.53657 2.47854 9.25002 2.61965 9.90527 2.87695L8.88379 3.89844C8.53371 3.8111 8.16716 3.76467 7.79004 3.76465C5.30284 3.76465 3.28613 5.78136 3.28613 8.26855C3.28629 10.7556 5.30294 12.7715 7.79004 12.7715C10.1564 12.7714 12.0945 10.9463 12.2773 8.62695H11.0029C10.8885 8.62674 10.8312 8.48823 10.9121 8.40723L12.8154 6.50391C12.8824 6.43691 12.9916 6.43691 13.0586 6.50391L14.9619 8.40723C15.0426 8.48832 14.9846 8.62695 14.8701 8.62695H13.5674C13.3821 11.6576 10.8673 14.0585 7.79004 14.0586C4.59231 14.0586 2.00016 11.4662 2 8.26855C2 5.07073 4.59222 2.47852 7.79004 2.47852ZM7.85938 9.10352L6.82324 9.44727C6.6893 9.49166 6.56206 9.36441 6.60645 9.23047L6.94922 8.19336L7.85938 9.10352ZM12.9619 2.18848C13.2131 1.93724 13.6198 1.93726 13.8711 2.18848C14.1223 2.43972 14.1223 2.84641 13.8711 3.09766L8.16602 8.79883L7.25684 7.88867L12.9619 2.18848Z"
    fill="currentColor" />
</svg>