<svg width="16" height="16" viewBox="0 0 16 16" fill="none" xmlns="http://www.w3.org/2000/svg">
  <path
    d="M7.06738 3.25586C7.31156 3.25586 7.51129 3.33523 7.66602 3.49414C7.82069 3.64934 7.89832 3.83845 7.89844 4.05957V6.14453H8.05078C8.24589 6.14453 8.4365 6.15144 8.62207 6.16211C8.54 6.52663 8.59144 6.91998 8.77344 7.24902C8.45943 7.21186 8.12511 7.1924 7.77051 7.19238H6.98828C6.84992 7.19238 6.78041 7.12887 6.78027 7.00098V4.79297C6.78005 4.73519 6.75113 4.70606 6.69434 4.70605C6.67419 4.7061 6.6558 4.71011 6.63965 4.71777C6.62356 4.72545 6.60691 4.73464 6.59082 4.74609L2.40527 8.56738C2.36088 8.60586 2.33828 8.64103 2.33789 8.67188C2.33789 8.6873 2.34255 8.70535 2.35059 8.72461C2.36277 8.74007 2.38101 8.76006 2.40527 8.7832L6.59668 12.5566C6.62915 12.5876 6.66186 12.6034 6.69434 12.6035C6.75127 12.6035 6.78019 12.5727 6.78027 12.5107V10.3496C6.78046 10.2257 6.84997 10.1631 6.98828 10.1631H7.77051C8.71124 10.1631 9.53648 10.2541 10.2451 10.4365C10.9537 10.6151 11.546 10.8802 12.0225 11.2295C12.503 11.575 12.8642 11.9884 13.1045 12.4697C13.1125 12.4889 13.1208 12.505 13.1289 12.5166C13.137 12.5242 13.1471 12.5283 13.1592 12.5283C13.1918 12.5283 13.208 12.5066 13.208 12.4639C13.1876 11.9127 13.11 11.3786 12.9756 10.8623C12.8636 10.4155 12.6984 9.9989 12.4873 9.60938C12.836 9.44563 13.1254 9.14375 13.2529 8.70117C13.508 9.12875 13.7137 9.60439 13.8682 10.1279C14.1166 10.9665 14.2412 11.9147 14.2412 12.9707C14.2412 13.3316 14.167 13.6037 14.0205 13.7861C13.878 13.9724 13.701 14.0654 13.4893 14.0654C13.3305 14.0654 13.1778 14.0327 13.0312 13.9668C12.8887 13.9008 12.7559 13.7623 12.6338 13.5527C12.3121 12.9785 11.9372 12.5203 11.5098 12.1787C11.0862 11.8371 10.5905 11.5899 10.0244 11.4385C9.45831 11.2871 8.80008 11.2119 8.05078 11.2119H7.89844V13.3145C7.89839 13.5355 7.82053 13.7197 7.66602 13.8672C7.51133 14.0146 7.31613 14.0888 7.08008 14.0889C6.91312 14.0889 6.75777 14.0562 6.61523 13.9902C6.47681 13.9281 6.32771 13.8252 6.16895 13.6816L1.33008 9.34766C1.208 9.24288 1.12209 9.13006 1.07324 9.00977C1.02454 8.88964 1 8.77652 1 8.67188C1.00012 8.56341 1.02448 8.45018 1.07324 8.33398C1.12217 8.21389 1.20813 8.10072 1.33008 7.99609L6.16895 3.69824C6.344 3.53916 6.49764 3.42633 6.62793 3.36035C6.75813 3.29067 6.90469 3.25586 7.06738 3.25586ZM11.4404 4.66113C11.5251 4.23111 12.1409 4.23118 12.2256 4.66113L12.4121 5.61133C12.4434 5.77061 12.5683 5.89541 12.7275 5.92676L13.6758 6.11328C14.1061 6.19797 14.1061 6.81405 13.6758 6.89844L12.7266 7.08398C12.5672 7.11525 12.4424 7.24003 12.4111 7.39941L12.2246 8.34863C12.2192 8.3761 12.2116 8.40182 12.2021 8.42578C12.1695 8.50883 12.1134 8.56945 12.0469 8.61035C12.019 8.62748 11.9899 8.64161 11.959 8.65137C11.9533 8.65318 11.9472 8.65372 11.9414 8.65527C11.7367 8.71015 11.4917 8.60901 11.4404 8.34863L11.4316 8.30371L11.4297 8.30273L11.2539 7.40137L11.2529 7.39941C11.2209 7.24108 11.0971 7.11711 10.9385 7.08594L9.98926 6.90039C9.97931 6.89843 9.97043 6.89314 9.96094 6.89062C9.94114 6.88539 9.92209 6.88051 9.9043 6.87305C9.89054 6.86725 9.87779 6.86053 9.86523 6.85352C9.85136 6.8458 9.83859 6.83717 9.82617 6.82812C9.81436 6.81947 9.80247 6.8115 9.79199 6.80176C9.77339 6.78458 9.75664 6.76611 9.74219 6.74609C9.7362 6.73774 9.73182 6.72848 9.72656 6.71973C9.71728 6.70442 9.70824 6.68918 9.70117 6.67285C9.69783 6.66506 9.69424 6.65739 9.69141 6.64941C9.67276 6.59758 9.66537 6.54225 9.66797 6.4873C9.66835 6.47979 9.66915 6.47233 9.66992 6.46484C9.68602 6.30494 9.79173 6.15411 9.98926 6.11523L10.9385 5.92871C11.0977 5.89737 11.2226 5.77254 11.2539 5.61328L11.4404 4.66113ZM9.41211 1.20801C9.46666 0.930783 9.86342 0.930783 9.91797 1.20801L10.002 1.63477C10.0223 1.73717 10.1026 1.81673 10.2051 1.83691L10.6309 1.9209C10.9079 1.97554 10.9079 2.37215 10.6309 2.42676L10.2051 2.50977C10.1025 2.52991 10.0222 2.61032 10.002 2.71289L9.91797 3.14062C9.86341 3.41775 9.46681 3.41772 9.41211 3.14062L9.32812 2.71289C9.30787 2.61027 9.22667 2.5299 9.12402 2.50977L8.7002 2.42676C8.42283 2.37235 8.42285 1.97542 8.7002 1.9209L9.125 1.83691C9.22749 1.81677 9.30776 1.73717 9.32812 1.63477L9.41211 1.20801Z"
    fill="currentColor" />
</svg>