<svg width="16" height="16" viewBox="0 0 16 16" fill="none" xmlns="http://www.w3.org/2000/svg">
  <path
    d="M12.2197 3C12.8007 3.00006 13.2419 3.16112 13.543 3.4834C13.8476 3.80584 14 4.27478 14 4.88965V8.33594C13.6638 8.17629 13.2978 8.06965 12.9131 8.02441V4.93457C12.9131 4.92237 12.9105 4.91036 12.9102 4.89844L9.94922 7.75195L10.666 8.51855C10.3759 8.69738 10.1135 8.91694 9.8877 9.16992L9.21973 8.45508L8.54297 9.1084C8.37494 9.27332 8.20473 9.39278 8.0332 9.46777C7.86512 9.54276 7.68616 9.58008 7.49707 9.58008C7.30816 9.58004 7.12985 9.54267 6.96191 9.46777C6.79384 9.39279 6.6251 9.27336 6.45703 9.1084L5.7793 8.45605L2.63965 11.8223C2.69048 11.8306 2.7445 11.8359 2.80176 11.8359H9.0166C9.05595 12.2491 9.16653 12.6414 9.33691 13H2.78027C2.20277 12.9999 1.76161 12.8389 1.45703 12.5166C1.1524 12.1942 1.00002 11.7252 1 11.1104V4.88965C1.00002 4.27478 1.14728 3.80584 1.44141 3.4834C1.73553 3.16111 2.14343 3 2.66504 3H12.2197ZM2.08691 4.93457V10.9248L5.04883 7.75293L2.08887 4.90234C2.08864 4.91298 2.08692 4.92371 2.08691 4.93457ZM2.78516 4.16504L7.0459 8.28125C7.19283 8.4198 7.34315 8.48917 7.49707 8.48926C7.65465 8.48926 7.80565 8.41998 7.94922 8.28125L12.2129 4.16504C12.2081 4.16498 12.2031 4.16406 12.1982 4.16406H2.80176C2.79624 4.16406 2.79062 4.16496 2.78516 4.16504Z"
    fill="currentColor" />
  <path
    d="M12.7737 8.87695C12.9232 8.91125 13.0772 8.92269 13.2269 8.95839C13.6405 9.05662 14.0357 9.28481 14.3465 9.56481L13.5928 10.2968C13.0662 9.87677 12.3723 9.7881 11.7744 10.1262C10.8102 10.6717 10.6851 12.0036 11.5339 12.7129C12.3339 13.3814 13.7675 13.1273 13.9895 12.0481H12.5592V11.0222H15.086C15.1356 11.3887 15.1427 11.7338 15.0791 12.0997C14.9191 13.0204 14.2717 13.7685 13.3458 14.0184L12.7737 14.1234C12.6338 14.1152 12.4829 14.1346 12.3446 14.1234C10.5868 13.9822 9.43119 12.2238 10.0383 10.5966C10.3909 9.65231 11.3156 8.95955 12.3446 8.87695H12.7737Z"
    fill="currentColor" />
</svg>