<svg width="13" height="13" viewBox="0 0 13 13" fill="none" xmlns="http://www.w3.org/2000/svg">
  <path
    d="M6.74414 12.8223C5.9082 12.8223 5.125 12.6641 4.39453 12.3477C3.66406 12.0352 3.02148 11.6016 2.4668 11.0469C1.91211 10.4961 1.47656 9.85547 1.16016 9.125C0.847656 8.39062 0.691406 7.60547 0.691406 6.76953C0.691406 5.93359 0.847656 5.15039 1.16016 4.41992C1.47656 3.68555 1.91211 3.04102 2.4668 2.48633C3.02148 1.93164 3.66406 1.49805 4.39453 1.18555C5.125 0.873047 5.9082 0.716797 6.74414 0.716797C7.58008 0.716797 8.36328 0.873047 9.09375 1.18555C9.82812 1.49805 10.4727 1.93164 11.0273 2.48633C11.582 3.04102 12.0156 3.68555 12.3281 4.41992C12.6445 5.15039 12.8027 5.93359 12.8027 6.76953C12.8027 7.60547 12.6445 8.39062 12.3281 9.125C12.0156 9.85547 11.582 10.4961 11.0273 11.0469C10.4727 11.6016 9.82812 12.0352 9.09375 12.3477C8.36328 12.6641 7.58008 12.8223 6.74414 12.8223ZM6.74414 11.627C7.41602 11.627 8.04492 11.5 8.63086 11.2461C9.2168 10.9961 9.73242 10.6484 10.1777 10.2031C10.627 9.75781 10.9766 9.24219 11.2266 8.65625C11.4766 8.07031 11.6016 7.44141 11.6016 6.76953C11.6016 6.09766 11.4766 5.46875 11.2266 4.88281C10.9766 4.29297 10.627 3.77734 10.1777 3.33594C9.73242 2.89062 9.2168 2.54297 8.63086 2.29297C8.04492 2.03906 7.41602 1.91211 6.74414 1.91211C6.07617 1.91211 5.44727 2.03906 4.85742 2.29297C4.27148 2.54297 3.75586 2.89062 3.31055 3.33594C2.86523 3.77734 2.51562 4.29297 2.26172 4.88281C2.01172 5.46875 1.88672 6.09766 1.88672 6.76953C1.88672 7.44141 2.01172 8.07031 2.26172 8.65625C2.51562 9.24219 2.86523 9.75781 3.31055 10.2031C3.75586 10.6484 4.27148 10.9961 4.85742 11.2461C5.44727 11.5 6.07617 11.627 6.74414 11.627ZM5.21484 8.89648C5.02734 8.89648 4.87891 8.8457 4.76953 8.74414C4.66406 8.63867 4.61133 8.49414 4.61133 8.31055V5.22266C4.61133 5.03906 4.66406 4.89648 4.76953 4.79492C4.87891 4.68945 5.02734 4.63672 5.21484 4.63672H8.26172C8.45312 4.63672 8.60156 4.68945 8.70703 4.79492C8.81641 4.89648 8.87109 5.03906 8.87109 5.22266V8.31055C8.87109 8.49414 8.81641 8.63867 8.70703 8.74414C8.60156 8.8457 8.45312 8.89648 8.26172 8.89648H5.21484Z"
    fill="currentColor" />
</svg>