<svg width="16" height="16" viewBox="0 0 16 16" fill="none" xmlns="http://www.w3.org/2000/svg">
  <path
    d="M6.5957 12.0928C6.20215 12.0928 5.90169 11.9891 5.69434 11.7817C5.49121 11.5701 5.38965 11.2633 5.38965 10.8613V5.68799C5.38965 5.2902 5.49121 4.98763 5.69434 4.78027C5.90169 4.56868 6.20215 4.46289 6.5957 4.46289H8.24609C8.47038 4.46289 8.65658 4.4904 8.80469 4.54541C8.9528 4.60042 9.09456 4.69564 9.22998 4.83105L11.1025 6.7417C11.2507 6.88981 11.348 7.03581 11.3945 7.17969C11.4453 7.31934 11.4707 7.51611 11.4707 7.77002V10.8613C11.4707 11.2633 11.367 11.5701 11.1597 11.7817C10.9523 11.9891 10.6519 12.0928 10.2583 12.0928H6.5957ZM6.62109 11.2422H10.2266C10.4932 11.2422 10.6265 11.1131 10.6265 10.855V7.94141H8.81738C8.56348 7.94141 8.3667 7.8737 8.22705 7.73828C8.09163 7.59863 8.02393 7.40397 8.02393 7.1543V5.31348H6.63379C6.36719 5.31348 6.23389 5.44255 6.23389 5.70068V10.855C6.23389 11.1131 6.36296 11.2422 6.62109 11.2422ZM8.93799 7.12891H10.3154L8.83643 5.61816V7.03369C8.83643 7.06755 8.84489 7.09294 8.86182 7.10986C8.87874 7.12256 8.90413 7.12891 8.93799 7.12891ZM2.62207 6.23389C2.20736 6.23389 2 6.0223 2 5.59912V4.05664C2 3.37956 2.17562 2.86751 2.52686 2.52051C2.87809 2.1735 3.39648 2 4.08203 2H5.62451C6.04346 2 6.25293 2.20736 6.25293 2.62207C6.25293 3.04102 6.04346 3.25049 5.62451 3.25049H4.1582C3.86198 3.25049 3.63558 3.32666 3.479 3.479C3.32666 3.63135 3.25049 3.86198 3.25049 4.1709V5.59912C3.25049 6.0223 3.04102 6.23389 2.62207 6.23389ZM13.9526 6.23389C13.5379 6.23389 13.3306 6.0223 13.3306 5.59912V4.1709C13.3306 3.86198 13.2502 3.63135 13.0894 3.479C12.9328 3.32666 12.7085 3.25049 12.4165 3.25049H10.9502C10.5312 3.25049 10.3218 3.04102 10.3218 2.62207C10.3218 2.20736 10.5312 2 10.9502 2H12.4927C13.1825 2 13.703 2.1735 14.0542 2.52051C14.4054 2.86751 14.5811 3.37956 14.5811 4.05664V5.59912C14.5811 6.0223 14.3716 6.23389 13.9526 6.23389ZM4.08203 14.5747C3.39648 14.5747 2.87809 14.3991 2.52686 14.0479C2.17562 13.7008 2 13.1888 2 12.5117V10.9756C2 10.5524 2.20736 10.3408 2.62207 10.3408C3.04102 10.3408 3.25049 10.5524 3.25049 10.9756V12.4038C3.25049 12.7127 3.32666 12.9434 3.479 13.0957C3.63558 13.248 3.86198 13.3242 4.1582 13.3242H5.62451C6.04346 13.3242 6.25293 13.5337 6.25293 13.9526C6.25293 14.3674 6.04346 14.5747 5.62451 14.5747H4.08203ZM10.9502 14.5747C10.5312 14.5747 10.3218 14.3674 10.3218 13.9526C10.3218 13.5337 10.5312 13.3242 10.9502 13.3242H12.4165C12.7085 13.3242 12.9328 13.248 13.0894 13.0957C13.2502 12.9434 13.3306 12.7127 13.3306 12.4038V10.9756C13.3306 10.5524 13.5379 10.3408 13.9526 10.3408C14.3716 10.3408 14.5811 10.5524 14.5811 10.9756V12.5117C14.5811 13.1888 14.4054 13.7008 14.0542 14.0479C13.703 14.3991 13.1825 14.5747 12.4927 14.5747H10.9502Z"
    fill="currentColor" />
</svg>