<svg width="16" height="16" viewBox="0 0 16 16" fill="none" xmlns="http://www.w3.org/2000/svg">
  <path
    d="M2 6.94582C2 6.26532 2.12759 5.62734 2.38278 5.0319C2.64203 4.4324 2.99848 3.90582 3.45215 3.45215C3.90582 2.99443 4.43038 2.63797 5.02582 2.38278C5.62532 2.12759 6.26532 2 6.94582 2C7.63038 2 8.27038 2.12759 8.86582 2.38278C9.46532 2.63797 9.9919 2.99443 10.4456 3.45215C10.8992 3.90582 11.2537 4.4324 11.5089 5.0319C11.7681 5.62734 11.8977 6.26532 11.8977 6.94582C11.8977 7.48051 11.8147 7.98886 11.6486 8.47089C11.4866 8.95291 11.2618 9.39241 10.9742 9.78937L13.7448 12.5722C13.8299 12.6532 13.8927 12.7484 13.9332 12.8577C13.9777 12.9671 14 13.0825 14 13.2041C14 13.3742 13.9615 13.5281 13.8846 13.6658C13.8076 13.8035 13.7023 13.9109 13.5686 13.9878C13.4349 14.0689 13.281 14.1094 13.1068 14.1094C12.9853 14.1094 12.8678 14.0871 12.7544 14.0425C12.6451 14.002 12.5458 13.9372 12.4567 13.8481L9.66785 11.0592C9.27899 11.3185 8.85367 11.523 8.3919 11.6729C7.93418 11.8187 7.45215 11.8916 6.94582 11.8916C6.26532 11.8916 5.62532 11.7641 5.02582 11.5089C4.43038 11.2537 3.90582 10.8992 3.45215 10.4456C2.99848 9.9919 2.64203 9.46734 2.38278 8.8719C2.12759 8.27241 2 7.63038 2 6.94582ZM3.26987 6.94582C3.26987 7.4562 3.36304 7.93418 3.54937 8.37975C3.73975 8.82127 4.00304 9.21013 4.33924 9.54633C4.67949 9.88253 5.07241 10.1478 5.51797 10.3423C5.96354 10.5327 6.43949 10.6278 6.94582 10.6278C7.4562 10.6278 7.93215 10.5327 8.37367 10.3423C8.81924 10.1478 9.21013 9.88253 9.54633 9.54633C9.88253 9.21013 10.1458 8.82127 10.3362 8.37975C10.5306 7.93418 10.6278 7.4562 10.6278 6.94582C10.6278 6.43949 10.5306 5.96354 10.3362 5.51797C10.1458 5.07241 9.88253 4.68152 9.54633 4.34532C9.21013 4.00506 8.81924 3.74177 8.37367 3.55544C7.93215 3.36506 7.4562 3.26987 6.94582 3.26987C6.43949 3.26987 5.96354 3.36506 5.51797 3.55544C5.07241 3.74177 4.67949 4.00506 4.33924 4.34532C4.00304 4.68152 3.73975 5.07241 3.54937 5.51797C3.36304 5.96354 3.26987 6.43949 3.26987 6.94582Z"
    fill="currentColor" />
</svg>