<svg width="16" height="16" viewBox="0 0 16 16" fill="none" xmlns="http://www.w3.org/2000/svg">
  <path
    d="M1 10.6698C1 10.4717 1.0198 10.2719 1.05941 10.0702C1.09902 9.86857 1.16924 9.64532 1.27006 9.40046L3.47917 4.19907C3.6412 3.81379 3.88246 3.51852 4.20293 3.31327C4.52701 3.10442 4.90149 3 5.32639 3C5.86651 3 6.29861 3.16024 6.62269 3.48071C6.94676 3.79758 7.1088 4.21708 7.1088 4.7392V10.6698C7.1088 11.1811 6.97197 11.6384 6.6983 12.0417C6.42464 12.4486 6.05556 12.769 5.59105 13.0031C5.13014 13.2407 4.61883 13.3596 4.0571 13.3596C3.49537 13.3596 2.98225 13.2407 2.51775 13.0031C2.05684 12.769 1.68776 12.4486 1.41049 12.0417C1.13683 11.6384 1 11.1811 1 10.6698ZM2.83642 8.25C3.02366 8.16358 3.22171 8.09696 3.43056 8.05015C3.6394 8.00334 3.84825 7.97994 4.0571 7.97994C4.45319 7.97994 4.83128 8.04835 5.19136 8.18518C5.55144 8.31842 5.86111 8.50386 6.12037 8.74151V4.79321C6.12037 4.54475 6.04475 4.34311 5.89352 4.18827C5.74228 4.03344 5.54064 3.95602 5.28858 3.95602C5.09414 3.95602 4.9177 4.01003 4.75926 4.11806C4.60442 4.22608 4.4856 4.37731 4.40278 4.57176L2.83642 8.25ZM2.02623 10.6698C2.02623 11.0046 2.11445 11.2999 2.2909 11.5556C2.47094 11.8112 2.71399 12.0111 3.02006 12.1551C3.32613 12.2991 3.67181 12.3711 4.0571 12.3711C4.44599 12.3711 4.79527 12.2991 5.10494 12.1551C5.41461 12.0147 5.66127 11.8166 5.84491 11.561C6.02855 11.3053 6.12037 11.0082 6.12037 10.6698C6.12037 10.3277 6.02855 10.0306 5.84491 9.77855C5.66127 9.52289 5.41281 9.32304 5.09954 9.17901C4.78987 9.03498 4.44239 8.96296 4.0571 8.96296C3.67181 8.96296 3.32613 9.03498 3.02006 9.17901C2.71399 9.32304 2.47094 9.52289 2.2909 9.77855C2.11445 10.0306 2.02623 10.3277 2.02623 10.6698ZM15 10.6698C15 11.1847 14.8614 11.6438 14.5841 12.0471C14.3104 12.454 13.9414 12.7744 13.4769 13.0085C13.0159 13.2425 12.5028 13.3596 11.9375 13.3596C11.3758 13.3596 10.8627 13.2425 10.3981 13.0085C9.93724 12.7744 9.56996 12.454 9.2963 12.0471C9.02623 11.6438 8.8912 11.1847 8.8912 10.6698V4.7392C8.8912 4.21708 9.05324 3.79758 9.37731 3.48071C9.70139 3.16024 10.1335 3 10.6736 3C11.0985 3 11.4712 3.10442 11.7917 3.31327C12.1121 3.52212 12.3552 3.81919 12.5208 4.20448L14.7245 9.40586C14.829 9.64712 14.901 9.87037 14.9406 10.0756C14.9802 10.2773 15 10.4753 15 10.6698ZM13.1636 8.2554L11.5918 4.57176C11.509 4.37731 11.3902 4.22788 11.2353 4.12346C11.0805 4.01543 10.9059 3.96142 10.7114 3.96142C10.4558 3.96142 10.2523 4.03884 10.1011 4.19367C9.94985 4.34491 9.87423 4.54655 9.87423 4.79861V8.74151C10.1335 8.50386 10.4432 8.31842 10.8032 8.18518C11.1633 8.04835 11.5414 7.97994 11.9375 7.97994C12.1463 7.97994 12.3552 8.00334 12.564 8.05015C12.7729 8.09696 12.9727 8.16538 13.1636 8.2554ZM13.9684 10.6698C13.9684 10.3313 13.8801 10.0342 13.7037 9.77855C13.5273 9.52289 13.286 9.32485 12.9799 9.18441C12.6739 9.04038 12.3264 8.96836 11.9375 8.96836C11.5522 8.96836 11.2047 9.04038 10.8951 9.18441C10.5854 9.32485 10.3387 9.52289 10.1551 9.77855C9.97145 10.0342 9.87963 10.3313 9.87963 10.6698C9.87963 11.0118 9.97145 11.3107 10.1551 11.5664C10.3387 11.8184 10.5854 12.0165 10.8951 12.1605C11.2047 12.3045 11.5522 12.3765 11.9375 12.3765C12.3264 12.3765 12.6739 12.3045 12.9799 12.1605C13.286 12.0165 13.5273 11.8166 13.7037 11.561C13.8801 11.3053 13.9684 11.0082 13.9684 10.6698ZM6.79012 9.51929V8.63349C6.97016 8.56147 7.16281 8.50566 7.36806 8.46605C7.5733 8.42644 7.78395 8.40664 8 8.40664C8.48611 8.40664 8.89841 8.47505 9.23688 8.61188V9.50849C8.94882 9.32124 8.53652 9.22762 8 9.22762C7.76955 9.22762 7.5481 9.25463 7.33565 9.30864C7.1232 9.35905 6.94136 9.42927 6.79012 9.51929ZM6.79012 7.86651V6.98071C6.97016 6.90869 7.16281 6.85288 7.36806 6.81327C7.5733 6.77366 7.78395 6.75386 8 6.75386C8.48611 6.75386 8.89841 6.82047 9.23688 6.9537V7.85571C8.94882 7.66487 8.53652 7.56944 8 7.56944C7.76955 7.56944 7.5481 7.59645 7.33565 7.65046C7.1232 7.70447 6.94136 7.77649 6.79012 7.86651ZM6.79012 6.20293V5.32253C6.97016 5.25051 7.16281 5.1947 7.36806 5.15509C7.5733 5.11188 7.78395 5.09028 8 5.09028C8.48611 5.09028 8.89841 5.15869 9.23688 5.29552V6.19213C8.94882 6.00129 8.53652 5.90586 8 5.90586C7.76955 5.90586 7.5481 5.93287 7.33565 5.98688C7.1232 6.04089 6.94136 6.11291 6.79012 6.20293Z"
    fill="currentColor" />
</svg>