<svg width="16" height="16" viewBox="0 0 16 16" fill="none" xmlns="http://www.w3.org/2000/svg">
  <path
    d="M11.562 14.3142C11.6208 14.4239 11.6362 14.5347 11.6083 14.6465C11.585 14.7581 11.5204 14.8385 11.4145 14.8878L10.2729 15.4631C10.1719 15.5166 10.0672 15.5224 9.95886 15.4806C9.85083 15.4432 9.7697 15.3695 9.71546 15.2594L6.8906 9.5955L7.53711 9.70996L5.53732 12.3058C5.44651 12.4317 5.3354 12.502 5.20399 12.5167C5.07222 12.5269 4.95528 12.4926 4.85318 12.4136C4.75107 12.3347 4.69613 12.2155 4.68835 12.0562L4.05391 2.45148C4.04754 2.31027 4.08208 2.19561 4.15753 2.10748C4.23752 2.01901 4.33676 1.97247 4.45525 1.96786C4.57793 1.95835 4.69329 2.00198 4.80135 2.09874L12.0831 8.47327C12.2009 8.57841 12.2625 8.69477 12.2678 8.82234C12.2732 8.94992 12.2337 9.06039 12.1495 9.15376C12.0653 9.24713 11.9479 9.29508 11.7973 9.29761L8.38838 9.36975L8.66541 8.78606L11.562 14.3142Z"
    fill="currentColor" />
</svg>