<svg width="16" height="16" viewBox="0 0 16 16" fill="none" xmlns="http://www.w3.org/2000/svg">
  <path
    d="M0.120605 7.25682C0.120605 6.82425 0.190587 6.40875 0.33055 6.01032C0.470513 5.6119 0.669408 5.24952 0.927235 4.9232C1.18875 4.59687 1.49998 4.32556 1.86094 4.10927L2.43552 5.11102C2.06352 5.33111 1.77254 5.63277 1.56259 6.01602C1.35265 6.39547 1.24768 6.80717 1.24768 7.25113C1.24768 7.74821 1.35081 8.18078 1.55707 8.54885C1.76701 8.91692 2.05983 9.20341 2.43552 9.40831C2.81121 9.61321 3.24952 9.71566 3.75044 9.71566C4.23663 9.71566 4.66204 9.62839 5.02668 9.45384C5.39132 9.2755 5.67493 9.02886 5.87751 8.71391C6.08009 8.39517 6.18138 8.02331 6.18138 7.59833C6.18138 7.39722 6.15375 7.21888 6.09851 7.0633C6.04326 6.90393 5.96407 6.77112 5.86094 6.66488C5.75044 6.56242 5.6602 6.47895 5.59022 6.41444C5.52024 6.34993 5.46867 6.28543 5.43552 6.22092C5.40237 6.15641 5.3858 6.06914 5.3858 5.9591C5.3858 5.81111 5.43552 5.68969 5.53497 5.59482C5.6381 5.49617 5.7707 5.44684 5.93276 5.44684C6.04326 5.44684 6.1427 5.46771 6.2311 5.50945C6.3195 5.54739 6.42263 5.61759 6.54049 5.72004C6.77991 5.92874 6.96407 6.19625 7.09298 6.52258C7.22558 6.84512 7.29188 7.20939 7.29188 7.6154C7.29188 8.26426 7.1427 8.83344 6.84436 9.32293C6.5497 9.81242 6.1335 10.1938 5.59574 10.467C5.06167 10.7364 4.43921 10.8711 3.72834 10.8711C3.01011 10.8711 2.38027 10.7212 1.83884 10.4214C1.2974 10.1217 0.87567 9.70049 0.573644 9.15787C0.271618 8.61526 0.120605 7.98157 0.120605 7.25682ZM1.61232 4.19465C1.61232 3.72033 1.72466 3.30104 1.94933 2.93677C2.1777 2.57249 2.4834 2.28791 2.86646 2.083C3.24952 1.8781 3.67862 1.77565 4.15375 1.77565C4.47788 1.77565 4.80385 1.83067 5.13166 1.94071C5.46315 2.05075 5.77622 2.21961 6.07088 2.44728L5.4079 3.39211C5.209 3.23653 5.0009 3.1208 4.78359 3.04491C4.56996 2.96902 4.35633 2.93108 4.1427 2.93108C3.87383 2.93108 3.63258 2.9842 3.41895 3.09045C3.209 3.19669 3.04326 3.34468 2.92171 3.5344C2.80016 3.72413 2.73939 3.94421 2.73939 4.19465C2.73939 4.41852 2.78727 4.61774 2.88304 4.79228C2.98248 4.96304 3.12245 5.09774 3.30293 5.1964C3.4834 5.29506 3.69887 5.34439 3.94933 5.34439C4.10403 5.34439 4.23663 5.4013 4.34713 5.51514C4.45762 5.62897 4.51287 5.76558 4.51287 5.92495C4.51287 6.08432 4.45762 6.22092 4.34713 6.33475C4.23663 6.44859 4.10403 6.50551 3.94933 6.50551C3.47788 6.50551 3.0672 6.40685 2.71729 6.20954C2.36738 6.01222 2.09482 5.74091 1.89961 5.39561C1.70808 5.04652 1.61232 4.6462 1.61232 4.19465ZM4.62337 3.99544C4.64178 3.43005 4.77622 2.93108 5.02668 2.4985C5.28083 2.06593 5.62337 1.72822 6.05431 1.48537C6.48525 1.24252 6.97328 1.12109 7.5184 1.12109C7.90882 1.12109 8.27714 1.20078 8.62337 1.36015C8.96959 1.51572 9.26241 1.73201 9.50182 2.00901C9.56812 1.99763 9.63258 1.98814 9.69519 1.98055C9.76149 1.97296 9.81858 1.96917 9.86646 1.96917C10.2495 1.96917 10.6123 2.04316 10.9549 2.19115C11.2974 2.33913 11.5994 2.55162 11.8609 2.82862C12.1224 3.10183 12.3287 3.42626 12.4797 3.80192C12.6307 4.17378 12.7062 4.58548 12.7062 5.03703C12.7062 5.59862 12.6197 6.06914 12.4466 6.44859C12.2735 6.82804 12.0506 7.14678 11.7781 7.40481C11.5055 7.65904 11.2164 7.88102 10.9107 8.07074C10.6086 8.25667 10.3213 8.43881 10.0488 8.61715C9.77991 8.7917 9.55707 8.98902 9.38027 9.2091C9.20716 9.42538 9.12061 9.69479 9.12061 10.0173C9.12061 10.4195 9.2753 10.7155 9.58469 10.9052C9.89409 11.0912 10.3121 11.1841 10.8388 11.1841C10.9272 11.1841 11.0101 11.1841 11.0875 11.1841C11.1685 11.1803 11.2385 11.1784 11.2974 11.1784C11.3637 11.1784 11.4134 11.1974 11.4466 11.2354C11.4834 11.2695 11.5018 11.3151 11.5018 11.372C11.5018 11.6224 11.5331 11.8691 11.5957 12.1119C11.6584 12.3585 11.7541 12.5615 11.883 12.7209C12.012 12.8803 12.174 12.96 12.3692 12.96C12.5644 12.96 12.7431 12.8613 12.9051 12.664C13.0672 12.4667 13.1961 12.1897 13.2919 11.833C13.3913 11.4801 13.441 11.0665 13.441 10.5922C13.441 10.2924 13.43 10.0211 13.4079 9.77827C13.3895 9.53543 13.3655 9.29068 13.3361 9.04404L14.4576 8.7253C14.4871 8.98332 14.511 9.25653 14.5294 9.54491C14.5515 9.83329 14.5626 10.1862 14.5626 10.6036C14.5626 11.0703 14.5147 11.5143 14.4189 11.9355C14.3232 12.3604 14.1814 12.7361 13.9935 13.0624C13.8094 13.3888 13.581 13.6468 13.3085 13.8365C13.0359 14.0262 12.7228 14.1211 12.3692 14.1211C12.0488 14.1211 11.7652 14.0319 11.5184 13.8536C11.2716 13.679 11.069 13.4457 10.9107 13.1535C10.7523 12.8651 10.6436 12.5502 10.5847 12.2087C10.5331 12.2125 10.4797 12.2162 10.4245 12.22C10.3729 12.2238 10.3232 12.2257 10.2753 12.2257C9.82963 12.2257 9.43184 12.1366 9.08193 11.9582C8.73202 11.7799 8.45578 11.5294 8.2532 11.2069C8.05431 10.8806 7.95486 10.4992 7.95486 10.0629C7.95486 9.61511 8.04142 9.23945 8.21453 8.93589C8.39132 8.63233 8.616 8.37051 8.88856 8.15043C9.1648 7.92655 9.45762 7.71785 9.76701 7.52433C10.0764 7.33081 10.3674 7.12591 10.6399 6.90962C10.9162 6.68954 11.1427 6.43151 11.3195 6.13554C11.4963 5.83578 11.5847 5.4696 11.5847 5.03703C11.5847 4.65378 11.4963 4.31987 11.3195 4.03528C11.1464 3.75069 10.9199 3.53061 10.6399 3.37503C10.3637 3.21566 10.0635 3.13408 9.73939 3.13029C9.64363 3.13029 9.5497 3.13598 9.45762 3.14736C9.36554 3.15875 9.2753 3.17582 9.1869 3.19859C9.11324 3.21756 9.05062 3.22136 8.99906 3.20997C8.94749 3.19479 8.90514 3.15685 8.87199 3.09614C8.76517 2.84949 8.58654 2.65028 8.33607 2.4985C8.0893 2.34672 7.8149 2.27083 7.51287 2.27083C7.17401 2.27083 6.87383 2.34862 6.61232 2.50419C6.35081 2.65597 6.1427 2.86467 5.98801 3.13029C5.837 3.3959 5.75412 3.70136 5.73939 4.04666C5.73202 4.225 5.67493 4.3654 5.56812 4.46785C5.46499 4.56651 5.33608 4.61584 5.18138 4.61584C5.023 4.61584 4.88856 4.55892 4.77806 4.44509C4.67125 4.33125 4.61968 4.18137 4.62337 3.99544ZM11.2422 9.70997C11.2422 9.5506 11.2974 9.4121 11.4079 9.29447C11.5184 9.17305 11.6528 9.11993 11.8112 9.1351C12.4705 9.19582 12.9991 9.05542 13.3968 8.71391C13.7946 8.36861 13.9935 7.88861 13.9935 7.2739C13.9935 6.69713 13.8223 6.2361 13.4797 5.8908C13.1372 5.5455 12.686 5.38423 12.1261 5.407L12.3085 4.2288C12.8683 4.3009 13.3582 4.47544 13.7781 4.75244C14.2016 5.02565 14.5313 5.38043 14.767 5.8168C15.0027 6.25317 15.1206 6.73887 15.1206 7.2739C15.1206 7.92276 14.9806 8.48245 14.7007 8.95297C14.4245 9.41969 14.0359 9.77069 13.535 10.0059C13.0377 10.2412 12.4595 10.3361 11.8002 10.2905C11.6418 10.2792 11.5092 10.2203 11.4024 10.1141C11.2956 10.0078 11.2422 9.87314 11.2422 9.70997ZM8.46867 10.3019L8.85541 11.4175C8.58654 11.5048 8.31398 11.5712 8.03773 11.6167C7.76149 11.6585 7.49445 11.6793 7.23663 11.6793C6.63626 11.6793 6.08746 11.5731 5.59022 11.3606C5.09298 11.1481 4.68967 10.8673 4.38027 10.5182L5.42447 9.72136C5.53865 9.88452 5.69703 10.0268 5.89961 10.1482C6.10587 10.2659 6.33423 10.3569 6.58469 10.4214C6.83884 10.486 7.09666 10.5182 7.35817 10.5182C7.54602 10.5182 7.73571 10.5011 7.92724 10.467C8.12245 10.429 8.30293 10.374 8.46867 10.3019ZM6.46867 6.38598C7.00274 6.32147 7.38212 6.164 7.60679 5.91356C7.83147 5.66313 7.93829 5.30265 7.92724 4.83213C7.92355 4.67276 7.97512 4.53805 8.08193 4.42801C8.19243 4.31418 8.32503 4.25726 8.47972 4.25726C8.63442 4.25726 8.76886 4.31418 8.88304 4.42801C8.99722 4.53805 9.05431 4.67276 9.05431 4.83213C9.06536 5.55688 8.88672 6.14882 8.5184 6.60796C8.15376 7.0633 7.59759 7.35927 6.84989 7.49587L6.46867 6.38598Z"
    fill="currentColor" />
</svg>