<svg width="16" height="16" viewBox="0 0 16 16" fill="none" xmlns="http://www.w3.org/2000/svg">
  <path
    d="M8 1.5C11.5899 1.5 14.5 4.41015 14.5 8C14.5 11.5899 11.5899 14.5 8 14.5C4.41015 14.5 1.5 11.5899 1.5 8C1.5 4.41015 4.41015 1.5 8 1.5ZM11.2432 5.58594C10.9763 5.43032 10.6139 5.49129 10.4336 5.72168L6.97461 10.1494L5.56445 8.37207C5.38217 8.14256 5.01856 8.0847 4.75293 8.24219C4.48778 8.39979 4.42046 8.71299 4.60254 8.94238L6.4375 11.2539C6.69938 11.5836 7.26342 11.5814 7.52246 11.25L11.4004 6.28613C11.5805 6.0554 11.5101 5.74168 11.2432 5.58594Z"
    fill="currentColor" />
</svg>