<svg width="16" height="16" viewBox="0 0 16 16" fill="none" xmlns="http://www.w3.org/2000/svg">
  <path
    d="M3.12354 9.21729C2.80615 9.21729 2.55648 9.13477 2.37451 8.96973C2.19678 8.80469 2.10791 8.58252 2.10791 8.30322C2.10791 8.16781 2.13965 8.03239 2.20312 7.89697C2.27083 7.76156 2.36182 7.6346 2.47607 7.51611L7.14795 2.5332C7.32145 2.36393 7.48649 2.23275 7.64307 2.13965C7.80387 2.04655 7.98161 2 8.17627 2C8.37093 2 8.54867 2.04867 8.70947 2.146C8.87028 2.2391 9.0332 2.36816 9.19824 2.5332L13.8828 7.51611C13.9928 7.63037 14.0817 7.75732 14.1494 7.89697C14.2171 8.03239 14.2489 8.16781 14.2446 8.30322C14.2404 8.58252 14.1494 8.80469 13.9717 8.96973C13.7939 9.13477 13.5485 9.21729 13.2354 9.21729H3.12354ZM3.97412 8.08105H12.3848C12.4906 8.08105 12.5435 8.03662 12.5435 7.94775C12.5435 7.9139 12.5244 7.87793 12.4863 7.83984L8.3667 3.49805C8.30322 3.42611 8.23975 3.39014 8.17627 3.39014C8.13818 3.39014 8.10433 3.40072 8.07471 3.42188C8.04508 3.44303 8.01546 3.46842 7.98584 3.49805L3.85986 7.83984C3.83024 7.8737 3.81543 7.90967 3.81543 7.94775C3.81543 8.03662 3.86833 8.08105 3.97412 8.08105ZM3.39648 14.0542C2.95638 14.0542 2.61361 13.9378 2.36816 13.7051C2.12272 13.4766 2 13.1444 2 12.7085V11.7627C2 11.3311 2.12272 10.9989 2.36816 10.7661C2.61361 10.5334 2.95638 10.417 3.39648 10.417H12.9434C13.3877 10.417 13.7305 10.5334 13.9717 10.7661C14.2171 10.9989 14.3398 11.3311 14.3398 11.7627V12.7085C14.3398 13.1444 14.2171 13.4766 13.9717 13.7051C13.7305 13.9378 13.3877 14.0542 12.9434 14.0542H3.39648ZM3.63135 12.9434H12.7085C12.8354 12.9434 12.9307 12.9074 12.9941 12.8354C13.0576 12.7677 13.0894 12.6704 13.0894 12.5435V11.9214C13.0894 11.7987 13.0576 11.7035 12.9941 11.6357C12.9307 11.568 12.8354 11.5342 12.7085 11.5342H3.63135C3.50863 11.5342 3.41341 11.568 3.3457 11.6357C3.28223 11.7035 3.25049 11.7987 3.25049 11.9214V12.5435C3.25049 12.6704 3.28223 12.7677 3.3457 12.8354C3.41341 12.9074 3.50863 12.9434 3.63135 12.9434Z"
    fill="currentColor" />
</svg>