<svg width="16" height="16" viewBox="0 0 16 16" fill="none" xmlns="http://www.w3.org/2000/svg">
  <path
    d="M8.05273 13.6309C7.64258 13.6309 7.25586 13.4902 6.89258 13.209C6.5293 12.9316 6.21094 12.541 5.9375 12.0371C5.66406 11.5332 5.44922 10.9434 5.29297 10.2676C5.13672 9.5918 5.05859 8.85742 5.05859 8.06445C5.05859 7.27148 5.13672 6.53516 5.29297 5.85547C5.44922 5.17578 5.66406 4.58398 5.9375 4.08008C6.21094 3.57617 6.52734 3.18555 6.88672 2.9082C7.25 2.62695 7.63867 2.48633 8.05273 2.48633C8.4707 2.48633 8.85938 2.62695 9.21875 2.9082C9.58203 3.18555 9.90039 3.57617 10.1738 4.08008C10.4512 4.58398 10.666 5.17578 10.8184 5.85547C10.9707 6.53516 11.0469 7.27148 11.0469 8.06445C11.0469 8.85742 10.9688 9.5918 10.8125 10.2676C10.6602 10.9434 10.4453 11.5332 10.168 12.0371C9.89453 12.541 9.57617 12.9316 9.21289 13.209C8.85352 13.4902 8.4668 13.6309 8.05273 13.6309ZM8.05273 3.24805C7.77148 3.24805 7.5 3.37695 7.23828 3.63477C6.98047 3.89258 6.75 4.24609 6.54688 4.69531C6.34766 5.14062 6.18945 5.6543 6.07227 6.23633C5.95508 6.81445 5.89648 7.42383 5.89648 8.06445C5.89648 8.70117 5.95508 9.30664 6.07227 9.88086C6.18945 10.4551 6.34766 10.9668 6.54688 11.416C6.75 11.8613 6.98047 12.2129 7.23828 12.4707C7.5 12.7324 7.77148 12.8633 8.05273 12.8633C8.33398 12.8633 8.60352 12.7324 8.86133 12.4707C9.12305 12.2129 9.35547 11.8594 9.55859 11.4102C9.76172 10.9609 9.92188 10.4492 10.0391 9.875C10.1562 9.30078 10.2148 8.69727 10.2148 8.06445C10.2148 7.42383 10.1562 6.81445 10.0391 6.23633C9.92188 5.6543 9.76172 5.14062 9.55859 4.69531C9.35547 4.24609 9.12305 3.89258 8.86133 3.63477C8.60352 3.37695 8.33398 3.24805 8.05273 3.24805ZM7.64844 2.5625H8.46875V13.5195H7.64844V2.5625ZM8.05273 10.1094C8.66602 10.1094 9.24609 10.1602 9.79297 10.2617C10.3398 10.3594 10.8301 10.5 11.2637 10.6836C11.7012 10.8672 12.0547 11.084 12.3242 11.334L11.6973 11.8496C11.4434 11.6543 11.1328 11.4883 10.7656 11.3516C10.4023 11.2109 9.99219 11.1055 9.53516 11.0352C9.07812 10.9609 8.58398 10.9238 8.05273 10.9238C7.52539 10.9238 7.03125 10.9609 6.57031 11.0352C6.11328 11.1055 5.70117 11.2109 5.33398 11.3516C4.9707 11.4883 4.66406 11.6543 4.41406 11.8496L3.78711 11.334C4.05664 11.084 4.4082 10.8672 4.8418 10.6836C5.27539 10.5 5.76562 10.3594 6.3125 10.2617C6.86328 10.1602 7.44336 10.1094 8.05273 10.1094ZM13.4258 7.64258V8.45703H2.68555V7.64258H13.4258ZM8.05273 6.02539C7.44336 6.02539 6.86328 5.97656 6.3125 5.87891C5.76562 5.77734 5.27539 5.63477 4.8418 5.45117C4.4082 5.26758 4.05664 5.05078 3.78711 4.80078L4.41406 4.28516C4.66797 4.48047 4.97656 4.64844 5.33984 4.78906C5.70312 4.92578 6.11328 5.03125 6.57031 5.10547C7.03125 5.17578 7.52539 5.21094 8.05273 5.21094C8.58398 5.21094 9.07812 5.17578 9.53516 5.10547C9.99219 5.03125 10.4023 4.92578 10.7656 4.78906C11.1328 4.64844 11.4434 4.48047 11.6973 4.28516L12.3242 4.80078C12.0547 5.05078 11.7012 5.26758 11.2637 5.45117C10.8301 5.63477 10.3398 5.77734 9.79297 5.87891C9.24609 5.97656 8.66602 6.02539 8.05273 6.02539ZM8.05273 14.1055C7.2168 14.1055 6.43359 13.9473 5.70312 13.6309C4.97266 13.3184 4.33008 12.8848 3.77539 12.3301C3.2207 11.7793 2.78516 11.1387 2.46875 10.4082C2.15625 9.67383 2 8.88867 2 8.05273C2 7.2168 2.15625 6.43359 2.46875 5.70312C2.78516 4.96875 3.2207 4.32422 3.77539 3.76953C4.33008 3.21484 4.97266 2.78125 5.70312 2.46875C6.43359 2.15625 7.2168 2 8.05273 2C8.88867 2 9.67188 2.15625 10.4023 2.46875C11.1367 2.78125 11.7812 3.21484 12.3359 3.76953C12.8906 4.32422 13.3242 4.96875 13.6367 5.70312C13.9531 6.43359 14.1113 7.2168 14.1113 8.05273C14.1113 8.88867 13.9531 9.67383 13.6367 10.4082C13.3242 11.1387 12.8906 11.7793 12.3359 12.3301C11.7812 12.8848 11.1367 13.3184 10.4023 13.6309C9.67188 13.9473 8.88867 14.1055 8.05273 14.1055ZM8.05273 13.168C8.75977 13.168 9.42188 13.0332 10.0391 12.7637C10.6562 12.498 11.1992 12.1328 11.668 11.668C12.1367 11.1992 12.5039 10.6562 12.7695 10.0391C13.0352 9.42188 13.168 8.75977 13.168 8.05273C13.168 7.3457 13.0352 6.68359 12.7695 6.06641C12.5039 5.44922 12.1367 4.90625 11.668 4.4375C11.1992 3.96875 10.6562 3.60156 10.0391 3.33594C9.42188 3.07031 8.75977 2.9375 8.05273 2.9375C7.34961 2.9375 6.68945 3.07031 6.07227 3.33594C5.45508 3.60156 4.91016 3.96875 4.4375 4.4375C3.96875 4.90625 3.60156 5.44922 3.33594 6.06641C3.07422 6.68359 2.94336 7.3457 2.94336 8.05273C2.94336 8.75977 3.07422 9.42188 3.33594 10.0391C3.60156 10.6562 3.96875 11.1992 4.4375 11.668C4.91016 12.1328 5.45508 12.498 6.07227 12.7637C6.68945 13.0332 7.34961 13.168 8.05273 13.168Z"
    fill="currentColor" />
</svg>